<svg width="154" height="68" viewBox="0 0 154 68" fill="none" xmlns="http://www.w3.org/2000/svg">
<path d="M10.0227 52C9.92898 51.7131 9.8054 51.456 9.65199 51.2287C9.50142 50.9986 9.32102 50.8026 9.1108 50.6406C8.90341 50.4787 8.66761 50.3551 8.40341 50.2699C8.1392 50.1847 7.84943 50.142 7.53409 50.142C7.01705 50.142 6.54688 50.2756 6.12358 50.5426C5.70028 50.8097 5.36364 51.2031 5.11364 51.723C4.86364 52.2429 4.73864 52.8807 4.73864 53.6364C4.73864 54.392 4.86506 55.0298 5.1179 55.5497C5.37074 56.0696 5.71307 56.4631 6.14489 56.7301C6.5767 56.9972 7.0625 57.1307 7.60227 57.1307C8.10227 57.1307 8.54261 57.0241 8.9233 56.8111C9.30682 56.5952 9.60511 56.2912 9.81818 55.8991C10.0341 55.5043 10.142 55.0398 10.142 54.5057L10.4659 54.5739H7.84091V53.6364H11.1648V54.5739C11.1648 55.2926 11.0114 55.9176 10.7045 56.4489C10.4006 56.9801 9.98011 57.392 9.44318 57.6847C8.90909 57.9744 8.29545 58.1193 7.60227 58.1193C6.82955 58.1193 6.15057 57.9375 5.56534 57.5739C4.98295 57.2102 4.52841 56.6932 4.2017 56.0227C3.87784 55.3523 3.71591 54.5568 3.71591 53.6364C3.71591 52.946 3.80824 52.3253 3.9929 51.7741C4.1804 51.2202 4.4446 50.7486 4.78551 50.3594C5.12642 49.9702 5.52983 49.6719 5.99574 49.4645C6.46165 49.2571 6.97443 49.1534 7.53409 49.1534C7.99432 49.1534 8.4233 49.223 8.82102 49.3622C9.22159 49.4986 9.57812 49.6932 9.89062 49.946C10.206 50.196 10.4688 50.4957 10.679 50.8452C10.8892 51.1918 11.0341 51.5767 11.1136 52H10.0227ZM14.6446 58.1534C14.2298 58.1534 13.8534 58.0753 13.5153 57.919C13.1772 57.7599 12.9088 57.5312 12.7099 57.233C12.511 56.9318 12.4116 56.5682 12.4116 56.142C12.4116 55.767 12.4855 55.4631 12.6332 55.2301C12.7809 54.9943 12.9784 54.8097 13.2255 54.6761C13.4727 54.5426 13.7454 54.4432 14.0437 54.3778C14.3448 54.3097 14.6474 54.2557 14.9514 54.2159C15.3491 54.1648 15.6715 54.1264 15.9187 54.1009C16.1687 54.0724 16.3505 54.0256 16.4642 53.9602C16.5806 53.8949 16.6389 53.7812 16.6389 53.6193V53.5852C16.6389 53.1648 16.5238 52.8381 16.2937 52.6051C16.0664 52.3722 15.7213 52.2557 15.2582 52.2557C14.7781 52.2557 14.4017 52.3608 14.1289 52.571C13.8562 52.7812 13.6644 53.0057 13.5537 53.2443L12.5991 52.9034C12.7696 52.5057 12.9968 52.196 13.2809 51.9744C13.5679 51.75 13.8804 51.5937 14.2184 51.5057C14.5593 51.4148 14.8946 51.3693 15.2241 51.3693C15.4343 51.3693 15.6758 51.3949 15.9485 51.446C16.2241 51.4943 16.4897 51.5952 16.7454 51.7486C17.0039 51.902 17.2184 52.1335 17.3889 52.4432C17.5593 52.7528 17.6446 53.1676 17.6446 53.6875V58H16.6389V57.1136H16.5877C16.5196 57.2557 16.4059 57.4077 16.2468 57.5696C16.0877 57.7315 15.8761 57.8693 15.6119 57.983C15.3477 58.0966 15.0252 58.1534 14.6446 58.1534ZM14.798 57.25C15.1957 57.25 15.5309 57.1719 15.8037 57.0156C16.0792 56.8594 16.2866 56.6577 16.4258 56.4105C16.5679 56.1634 16.6389 55.9034 16.6389 55.6307V54.7102C16.5963 54.7614 16.5025 54.8082 16.3576 54.8509C16.2156 54.8906 16.0508 54.9261 15.8633 54.9574C15.6787 54.9858 15.4983 55.0114 15.3221 55.0341C15.1488 55.054 15.0082 55.071 14.9002 55.0852C14.6389 55.1193 14.3946 55.1747 14.1673 55.2514C13.9429 55.3253 13.761 55.4375 13.6218 55.5881C13.4855 55.7358 13.4173 55.9375 13.4173 56.1932C13.4173 56.5426 13.5465 56.8068 13.8051 56.9858C14.0664 57.1619 14.3974 57.25 14.798 57.25ZM19.3601 58V51.4545H20.3317V52.4432H20.3999C20.5192 52.1193 20.7351 51.8565 21.0476 51.6548C21.3601 51.4531 21.7124 51.3523 22.1045 51.3523C22.1783 51.3523 22.2707 51.3537 22.3814 51.3565C22.4922 51.3594 22.5761 51.3636 22.6329 51.3693V52.392C22.5988 52.3835 22.5207 52.3707 22.3985 52.3537C22.2792 52.3338 22.1528 52.3239 22.0192 52.3239C21.7011 52.3239 21.417 52.3906 21.167 52.5241C20.9198 52.6548 20.7238 52.8366 20.5789 53.0696C20.4368 53.2997 20.3658 53.5625 20.3658 53.858V58H19.3601ZM26.9617 51.4545V52.3068H23.5697V51.4545H26.9617ZM24.5583 49.8864H25.564V56.125C25.564 56.4091 25.6052 56.6222 25.6876 56.7642C25.7728 56.9034 25.8808 56.9972 26.0114 57.0455C26.145 57.0909 26.2856 57.1136 26.4333 57.1136C26.5441 57.1136 26.635 57.108 26.7061 57.0966C26.7771 57.0824 26.8339 57.071 26.8765 57.0625L27.0811 57.9659C27.0129 57.9915 26.9177 58.017 26.7955 58.0426C26.6734 58.071 26.5186 58.0852 26.3311 58.0852C26.047 58.0852 25.7686 58.0241 25.4958 57.902C25.2259 57.7798 25.0015 57.5938 24.8225 57.3438C24.6464 57.0938 24.5583 56.7784 24.5583 56.3977V49.8864ZM29.3602 54.0625V58H28.3545V51.4545H29.3261V52.4773H29.4113C29.5647 52.1449 29.7977 51.8778 30.1102 51.6761C30.4227 51.4716 30.8261 51.3693 31.3204 51.3693C31.7636 51.3693 32.1514 51.4602 32.4838 51.642C32.8162 51.821 33.0747 52.0938 33.2593 52.4602C33.444 52.8239 33.5363 53.2841 33.5363 53.8409V58H32.5307V53.9091C32.5307 53.3949 32.3971 52.9943 32.1301 52.7074C31.863 52.4176 31.4966 52.2727 31.0307 52.2727C30.7096 52.2727 30.4227 52.3423 30.1699 52.4815C29.9199 52.6207 29.7224 52.8239 29.5775 53.0909C29.4326 53.358 29.3602 53.6818 29.3602 54.0625ZM37.9984 58.1364C37.3677 58.1364 36.8237 57.9972 36.3663 57.7188C35.9117 57.4375 35.5609 57.0455 35.3137 56.5426C35.0694 56.0369 34.9472 55.4489 34.9472 54.7784C34.9472 54.108 35.0694 53.517 35.3137 53.0057C35.5609 52.4915 35.9046 52.0909 36.345 51.804C36.7881 51.5142 37.3052 51.3693 37.8961 51.3693C38.237 51.3693 38.5737 51.4261 38.906 51.5398C39.2384 51.6534 39.541 51.8381 39.8137 52.0938C40.0864 52.3466 40.3038 52.6818 40.4657 53.0994C40.6276 53.517 40.7086 54.0312 40.7086 54.642V55.0682H35.6631V54.1989H39.6859C39.6859 53.8295 39.612 53.5 39.4643 53.2102C39.3194 52.9205 39.112 52.6918 38.8421 52.5241C38.5751 52.3565 38.2597 52.2727 37.8961 52.2727C37.4955 52.2727 37.1489 52.3722 36.8563 52.571C36.5665 52.767 36.3435 53.0227 36.1873 53.3381C36.031 53.6534 35.9529 53.9915 35.9529 54.3523V54.9318C35.9529 55.4261 36.0381 55.8452 36.2086 56.1889C36.3819 56.5298 36.6219 56.7898 36.9288 56.9688C37.2356 57.1449 37.5921 57.233 37.9984 57.233C38.2626 57.233 38.5012 57.196 38.7143 57.1222C38.9302 57.0455 39.1163 56.9318 39.2725 56.7812C39.4288 56.6278 39.5495 56.4375 39.6347 56.2102L40.6063 56.483C40.504 56.8125 40.3322 57.1023 40.0907 57.3523C39.8492 57.5994 39.5509 57.7926 39.1958 57.9318C38.8407 58.0682 38.4415 58.1364 37.9984 58.1364ZM42.1184 58V51.4545H43.09V52.4432H43.1582C43.2775 52.1193 43.4934 51.8565 43.8059 51.6548C44.1184 51.4531 44.4707 51.3523 44.8627 51.3523C44.9366 51.3523 45.0289 51.3537 45.1397 51.3565C45.2505 51.3594 45.3343 51.3636 45.3911 51.3693V52.392C45.3571 52.3835 45.2789 52.3707 45.1568 52.3537C45.0375 52.3338 44.911 52.3239 44.7775 52.3239C44.4593 52.3239 44.1752 52.3906 43.9252 52.5241C43.6781 52.6548 43.4821 52.8366 43.3372 53.0696C43.1951 53.2997 43.1241 53.5625 43.1241 53.858V58H42.1184Z" fill="white"/>
<path d="M1.53409 30.9091V27.0341L11.25 11.7273H14.5909V17.0909H12.6136L6.48864 26.7841V26.9659H20.2955V30.9091H1.53409ZM12.7045 35V29.7273L12.7955 28.0114V11.7273H17.4091V35H12.7045ZM25.6914 35.2955C24.9414 35.2955 24.2974 35.0303 23.7595 34.5C23.2292 33.9621 22.9641 33.3182 22.9641 32.5682C22.9641 31.8258 23.2292 31.1894 23.7595 30.6591C24.2974 30.1288 24.9414 29.8636 25.6914 29.8636C26.4186 29.8636 27.055 30.1288 27.6005 30.6591C28.1459 31.1894 28.4186 31.8258 28.4186 32.5682C28.4186 33.0682 28.2898 33.5265 28.0323 33.9432C27.7823 34.3523 27.4527 34.6818 27.0436 34.9318C26.6345 35.1742 26.1838 35.2955 25.6914 35.2955ZM39.7719 35.3182C38.0219 35.3182 36.4651 35.0341 35.1015 34.4659C33.7454 33.8902 32.681 33.1061 31.9083 32.1136C31.1356 31.1212 30.7492 29.9962 30.7492 28.7386C30.7492 27.7689 30.9689 26.8788 31.4083 26.0682C31.8553 25.25 32.4613 24.572 33.2265 24.0341C33.9916 23.4886 34.8477 23.1402 35.7947 22.9886V22.8295C34.5522 22.5795 33.5447 21.9773 32.7719 21.0227C31.9992 20.0606 31.6128 18.9432 31.6128 17.6705C31.6128 16.4659 31.9651 15.3939 32.6697 14.4545C33.3742 13.5076 34.3401 12.7652 35.5674 12.2273C36.8022 11.6818 38.2038 11.4091 39.7719 11.4091C41.3401 11.4091 42.7378 11.6818 43.9651 12.2273C45.2 12.7727 46.1697 13.5189 46.8742 14.4659C47.5788 15.4053 47.9348 16.4735 47.9424 17.6705C47.9348 18.9508 47.5409 20.0682 46.7606 21.0227C45.9803 21.9773 44.9803 22.5795 43.7606 22.8295V22.9886C44.6924 23.1402 45.5371 23.4886 46.2947 24.0341C47.0598 24.572 47.6659 25.25 48.1128 26.0682C48.5674 26.8788 48.7984 27.7689 48.806 28.7386C48.7984 29.9962 48.4083 31.1212 47.6356 32.1136C46.8628 33.1061 45.7947 33.8902 44.431 34.4659C43.075 35.0341 41.5219 35.3182 39.7719 35.3182ZM39.7719 31.7045C40.5522 31.7045 41.2341 31.5644 41.8174 31.2841C42.4007 30.9962 42.8553 30.6023 43.181 30.1023C43.5144 29.5947 43.681 29.0114 43.681 28.3523C43.681 27.678 43.5106 27.0833 43.1697 26.5682C42.8288 26.0455 42.3666 25.6364 41.7833 25.3409C41.2 25.0379 40.5295 24.8864 39.7719 24.8864C39.0219 24.8864 38.3515 25.0379 37.7606 25.3409C37.1697 25.6364 36.7038 26.0455 36.3628 26.5682C36.0295 27.0833 35.8628 27.678 35.8628 28.3523C35.8628 29.0114 36.0257 29.5947 36.3515 30.1023C36.6772 30.6023 37.1356 30.9962 37.7265 31.2841C38.3174 31.5644 38.9992 31.7045 39.7719 31.7045ZM39.7719 21.3068C40.4234 21.3068 41.003 21.1742 41.5106 20.9091C42.0181 20.6439 42.4159 20.2765 42.7038 19.8068C42.9916 19.3371 43.1356 18.7955 43.1356 18.1818C43.1356 17.5758 42.9916 17.0455 42.7038 16.5909C42.4159 16.1288 42.0219 15.7689 41.5219 15.5114C41.0219 15.2462 40.4386 15.1136 39.7719 15.1136C39.1128 15.1136 38.5295 15.2462 38.0219 15.5114C37.5144 15.7689 37.1166 16.1288 36.8288 16.5909C36.5484 17.0455 36.4083 17.5758 36.4083 18.1818C36.4083 18.7955 36.5522 19.3371 36.8401 19.8068C37.128 20.2765 37.5257 20.6439 38.0333 20.9091C38.5409 21.1742 39.1204 21.3068 39.7719 21.3068Z" fill="white"/>
<path d="M61.4424 28.0056C61.7498 27.8299 62.1272 27.8299 62.4346 28.0056L64.4187 29.1392C65.1471 29.5553 66.0333 28.9437 65.9026 28.1151L65.485 25.4683C65.4368 25.1624 65.533 24.8513 65.7456 24.6261L67.5776 22.6852C68.1295 22.1005 67.8007 21.1366 67.0065 21.011L64.6152 20.633C64.2833 20.5805 63.9999 20.3648 63.8609 20.0589L62.8493 17.8322C62.494 17.0503 61.3833 17.0504 61.0283 17.8324L60.0175 20.0587C59.8786 20.3647 59.5951 20.5805 59.2631 20.633L56.8719 21.011C56.0778 21.1366 55.749 22.1005 56.3009 22.6852L58.1328 24.6259C58.3454 24.8513 58.4417 25.1624 58.3933 25.4685L57.9751 28.1144C57.8442 28.9432 58.7305 29.555 59.459 29.1388L61.4424 28.0056Z" fill="white"/>
<rect x="86" width="68" height="68" rx="4" fill="white"/>
<mask id="mask0_37_129" style="mask-type:alpha" maskUnits="userSpaceOnUse" x="86" y="0" width="68" height="68">
<rect x="86" width="68" height="68" fill="#D9D9D9"/>
</mask>
<g mask="url(#mask0_37_129)">
<path d="M118.236 23.4327L118.157 24.3814H117.771C117.152 24.3814 116.835 24.882 116.835 25.3511V27.4855H115.745V23.4327H116.787L116.813 23.9439C117.03 23.5961 117.417 23.4327 117.877 23.4327H118.236Z" fill="#002856"/>
<path d="M110.62 27.475H109.515V25.3405C109.515 24.8926 109.478 24.3287 108.848 24.3287C108.219 24.3287 108.002 24.7661 108.002 25.2773V27.4802H106.896V23.4327H107.912L107.938 23.9439C108.155 23.5961 108.568 23.3273 109.16 23.3273C110.266 23.3273 110.61 24.1179 110.61 24.94V27.475H110.62Z" fill="#002856"/>
<path d="M106.426 26.5265L106.347 27.4488C106.077 27.5278 105.844 27.5384 105.564 27.5384C104.522 27.5384 104.231 27.064 104.231 26.1207V22.2787H105.337V23.4171H106.426L106.347 24.3657H105.331V26.0416C105.331 26.4264 105.432 26.6319 105.834 26.6319C106.003 26.6319 106.194 26.6214 106.426 26.5318" fill="#002856"/>
<path d="M103.872 23.4327L103.782 24.3814H103.486C102.867 24.3814 102.56 24.882 102.56 25.3511V27.4855H101.454V23.4327H102.496L102.523 23.9439C102.74 23.5961 103.126 23.4327 103.602 23.4327H103.872Z" fill="#002856"/>
<path d="M96.4989 27.0263C95.7532 27.4215 95.0075 27.6533 94.0237 27.627C92.2149 27.5743 90.9033 26.4519 90.9033 24.5445C90.9033 22.6371 92.2255 21.4357 94.0343 21.4093C94.944 21.383 95.7691 21.6254 96.409 22.1892L95.6368 22.969C95.2402 22.6212 94.6637 22.4316 93.955 22.4579C92.8231 22.5106 92.1303 23.3379 92.1197 24.4813C92.1091 25.709 92.8654 26.552 94.0449 26.5942C94.5949 26.6047 94.9969 26.531 95.3407 26.3782V25.1241H94.1083L94.1877 24.0861H96.4989V27.0263Z" fill="#002856"/>
<path d="M114.143 24.9927C114.106 24.4815 113.72 24.16 113.191 24.1758C112.651 24.2022 112.308 24.5448 112.228 24.9927H114.143ZM115.233 25.836H112.218C112.308 26.3472 112.72 26.6686 113.217 26.6792C113.72 26.6897 113.99 26.5369 114.35 26.1785L115.069 26.7266C114.556 27.3538 113.953 27.5857 113.244 27.5857C112.022 27.5857 111.102 26.7266 111.102 25.4618C111.102 24.1969 112.011 23.3379 113.196 23.3379C114.508 23.3379 115.212 24.1284 115.212 25.525V25.8307H115.238L115.233 25.836Z" fill="#002856"/>
<path d="M99.7097 25.7095H99.5563C99.0432 25.7095 98.1174 25.7358 98.1333 26.2734C98.1333 27.0428 99.715 26.8004 99.715 25.8781V25.7095H99.7097ZM100.778 24.8241V27.4697H99.8155L99.789 27.0745C99.4928 27.4434 99.0061 27.5751 98.5194 27.5751C97.7736 27.5751 97.07 27.2062 97.0541 26.3472C97.0277 25.0033 98.5671 24.9031 99.5457 24.9031H99.7361V24.8662C99.7361 24.4183 99.4399 24.1759 98.8897 24.1759C98.493 24.1759 98.0963 24.3287 97.8106 24.6133L97.1811 23.9756C97.7577 23.5171 98.3502 23.3379 98.9903 23.3379C100.212 23.3379 100.773 23.9123 100.773 24.8346" fill="#002856"/>
<path d="M117.707 26.9737V26.7839H117.834C117.898 26.7839 117.977 26.7945 117.977 26.8735C117.977 26.9737 117.898 26.9737 117.824 26.9737H117.707ZM117.707 27.0527H117.824L117.993 27.3215H118.094L117.914 27.0422C118.004 27.0316 118.083 26.9789 118.083 26.863C118.083 26.7365 118.004 26.6838 117.866 26.6838H117.623V27.311H117.713V27.0527H117.707ZM117.824 27.5481C118.12 27.5481 118.374 27.3162 118.374 27C118.374 26.6838 118.115 26.4625 117.824 26.4625C117.533 26.4625 117.274 26.6944 117.274 27C117.263 27.3215 117.517 27.5481 117.824 27.5481ZM117.374 27.0158C117.374 26.7576 117.565 26.5679 117.824 26.5679C118.083 26.5679 118.273 26.7576 118.273 27.0158C118.273 27.2846 118.083 27.4743 117.824 27.4743C117.565 27.4638 117.374 27.2688 117.374 27.0158Z" fill="#002856"/>
<path d="M95.9383 34.4981V34.535C95.9383 36.0683 94.7854 36.669 93.3944 36.669H92.215V39.6092H91.3423V32.3851H93.4102C94.7959 32.3851 95.9383 33.0016 95.9383 34.4981ZM95.0604 34.5455V34.5086C95.0604 33.4864 94.4416 33.1017 93.4684 33.1017H92.2255V35.9945H93.4578C94.4998 35.984 95.0604 35.4834 95.0604 34.5508V34.5455Z" fill="#002856"/>
<path d="M96.1817 37.0435V36.9645C96.1817 35.3676 97.2079 34.2503 98.6732 34.2503C99.9058 34.2503 101.059 34.9934 101.059 36.8854V37.1542H97.0651C97.1021 38.3558 97.684 39.0199 98.7737 39.0199C99.5937 39.0199 100.07 38.7142 100.186 38.0976H101.033C100.853 39.1569 99.9692 39.7208 98.7578 39.7208C97.2555 39.7102 96.1764 38.6615 96.1764 37.033L96.1817 37.0435ZM98.6838 34.946C97.8215 34.946 97.2449 35.5363 97.1021 36.4796H100.207C100.117 35.3782 99.5513 34.946 98.6785 34.946H98.6838Z" fill="#002856"/>
<path d="M101.804 37.0435V36.9645C101.804 35.3676 102.83 34.2503 104.295 34.2503C105.528 34.2503 106.681 34.9934 106.681 36.8854V37.1542H102.676C102.713 38.3558 103.295 39.0199 104.385 39.0199C105.205 39.0199 105.681 38.7142 105.797 38.0976H106.644C106.464 39.1569 105.581 39.7208 104.369 39.7208C102.867 39.7102 101.804 38.6615 101.804 37.033V37.0435ZM104.295 34.946C103.433 34.946 102.856 35.5363 102.703 36.4796H105.808C105.745 35.3782 105.168 34.946 104.295 34.946Z" fill="#002856"/>
<path d="M108.595 35.278C108.928 34.6772 109.388 34.2662 110.34 34.2293V35.0198C109.277 35.0725 108.595 35.4045 108.595 36.7063V39.6101H107.748V34.3241H108.595V35.2728V35.278Z" fill="#002856"/>
<path d="M114.037 39.6249H113.154V32.3851H114.037V39.6249Z" fill="#40B3E1"/>
<path d="M116.116 35.1726C116.359 34.6719 116.952 34.2398 117.824 34.2398C118.93 34.2398 119.697 34.8406 119.697 36.3742V39.6259H118.851V36.311C118.851 35.3781 118.454 34.9671 117.608 34.9671C116.825 34.9671 116.116 35.4677 116.116 36.4111V39.6206H115.269V34.3241H116.116V35.1673V35.1726Z" fill="#40B3E1"/>
<path d="M120.378 38.0027H121.198C121.262 38.6298 121.595 39.0251 122.457 39.0251C123.251 39.0251 123.611 38.7563 123.611 38.1819C123.611 37.6074 123.198 37.4388 122.367 37.2859C120.981 37.0277 120.516 36.6483 120.516 35.726C120.516 34.7404 121.479 34.2398 122.315 34.2398C123.267 34.2398 124.097 34.6245 124.24 35.7734H123.431C123.314 35.199 122.981 34.9407 122.315 34.9407C121.696 34.9407 121.315 35.2464 121.315 35.6943C121.315 36.1687 121.585 36.3584 122.558 36.5376C123.663 36.7431 124.431 36.9855 124.431 38.1134C124.431 39.0725 123.775 39.726 122.479 39.726C121.193 39.7155 120.426 39.0725 120.373 37.9974L120.378 38.0027Z" fill="#40B3E1"/>
<path d="M125.218 32.6643C125.218 32.3587 125.461 32.1005 125.784 32.1005C126.106 32.1005 126.35 32.3429 126.35 32.6485C126.35 32.9541 126.106 33.2123 125.784 33.2123C125.477 33.2123 125.218 32.9699 125.218 32.6643ZM126.223 39.6249H125.376V34.3294H126.223V39.6249Z" fill="#40B3E1"/>
<path d="M127.275 39.9305H128.137C128.264 40.547 128.767 40.8526 129.676 40.8526C130.718 40.8526 131.385 40.352 131.385 39.2139V38.4446C130.988 39.0611 130.322 39.4299 129.587 39.4405C128.185 39.4405 127.159 38.3919 127.159 36.9323V36.8533C127.159 35.4201 128.174 34.2187 129.634 34.2187C130.517 34.2187 131.073 34.6403 131.369 35.1672V34.3241H132.205V39.2613C132.194 40.7946 131.152 41.5534 129.661 41.5534C128.106 41.5639 127.413 40.8263 127.275 39.9305ZM131.406 36.8849V36.8059C131.406 35.615 130.75 34.9248 129.724 34.9248C128.698 34.9248 128.042 35.7046 128.042 36.8164V36.8955C128.042 38.0441 128.788 38.7397 129.687 38.7397C130.66 38.7502 131.406 38.0599 131.406 36.8849Z" fill="#40B3E1"/>
<path d="M134.399 35.1724C134.642 34.6718 135.235 34.2398 136.107 34.2398C137.197 34.2398 137.98 34.8405 137.98 36.3738V39.6249H137.133V36.3106C137.133 35.3779 136.737 34.9669 135.89 34.9669C135.108 34.9669 134.399 35.4675 134.399 36.4107V39.6196H133.553V31.7896H134.399V35.1671V35.1724Z" fill="#40B3E1"/>
<path d="M139.339 38.3076V35.046H138.583V34.3294H139.339V33.1281H140.185V34.3294H141.428V35.046H140.185V38.2286C140.185 38.7397 140.418 38.9979 140.841 38.9979C141.058 38.9979 141.291 38.961 141.497 38.882V39.5881C141.264 39.6671 141.021 39.704 140.778 39.704C139.805 39.704 139.339 39.1296 139.339 38.3076Z" fill="#40B3E1"/>
<path d="M141.91 38.0027H142.73C142.793 38.6298 143.126 39.0251 143.973 39.0251C144.819 39.0251 145.126 38.7563 145.126 38.1819C145.126 37.6074 144.713 37.4388 143.883 37.2859C142.497 37.0277 142.031 36.6483 142.031 35.726C142.031 34.7404 142.994 34.2398 143.83 34.2398C144.782 34.2398 145.613 34.6245 145.755 35.7734H144.946C144.819 35.199 144.496 34.9407 143.83 34.9407C143.211 34.9407 142.83 35.2464 142.83 35.6943C142.83 36.1687 143.1 36.3584 144.073 36.5376C145.179 36.7431 145.946 36.9855 145.946 38.1134C145.946 39.0725 145.29 39.726 143.994 39.726C142.708 39.7155 141.952 39.0725 141.899 37.9974L141.91 38.0027Z" fill="#40B3E1"/>
<path d="M146.659 38.4867H147.622V38.6764H147.262V39.7621H147.019V38.6764H146.659V38.4867Z" fill="#002856"/>
<path d="M148.442 39.3668L148.775 38.4973H149.097V39.7779H148.854V38.8082L148.468 39.7779H148.389L148.002 38.8082V39.7779H147.786V38.4973H148.108L148.442 39.3668Z" fill="#002856"/>
</g>
</svg>
