<svg width="154" height="68" viewBox="0 0 154 68" fill="none" xmlns="http://www.w3.org/2000/svg">
<path d="M10.0227 52C9.92898 51.7131 9.8054 51.456 9.65199 51.2287C9.50142 50.9986 9.32102 50.8026 9.1108 50.6406C8.90341 50.4787 8.66761 50.3551 8.40341 50.2699C8.1392 50.1847 7.84943 50.142 7.53409 50.142C7.01705 50.142 6.54688 50.2756 6.12358 50.5426C5.70028 50.8097 5.36364 51.2031 5.11364 51.723C4.86364 52.2429 4.73864 52.8807 4.73864 53.6364C4.73864 54.392 4.86506 55.0298 5.1179 55.5497C5.37074 56.0696 5.71307 56.4631 6.14489 56.7301C6.5767 56.9972 7.0625 57.1307 7.60227 57.1307C8.10227 57.1307 8.54261 57.0241 8.9233 56.8111C9.30682 56.5952 9.60511 56.2912 9.81818 55.8991C10.0341 55.5043 10.142 55.0398 10.142 54.5057L10.4659 54.5739H7.84091V53.6364H11.1648V54.5739C11.1648 55.2926 11.0114 55.9176 10.7045 56.4489C10.4006 56.9801 9.98011 57.392 9.44318 57.6847C8.90909 57.9744 8.29545 58.1193 7.60227 58.1193C6.82955 58.1193 6.15057 57.9375 5.56534 57.5739C4.98295 57.2102 4.52841 56.6932 4.2017 56.0227C3.87784 55.3523 3.71591 54.5568 3.71591 53.6364C3.71591 52.946 3.80824 52.3253 3.9929 51.7741C4.1804 51.2202 4.4446 50.7486 4.78551 50.3594C5.12642 49.9702 5.52983 49.6719 5.99574 49.4645C6.46165 49.2571 6.97443 49.1534 7.53409 49.1534C7.99432 49.1534 8.4233 49.223 8.82102 49.3622C9.22159 49.4986 9.57812 49.6932 9.89062 49.946C10.206 50.196 10.4688 50.4957 10.679 50.8452C10.8892 51.1918 11.0341 51.5767 11.1136 52H10.0227ZM12.7014 58V57.233L15.5821 54.0795C15.9201 53.7102 16.1985 53.3892 16.4173 53.1165C16.636 52.8409 16.798 52.5824 16.9031 52.3409C17.011 52.0966 17.065 51.8409 17.065 51.5739C17.065 51.267 16.9912 51.0014 16.8434 50.777C16.6985 50.5526 16.4997 50.3793 16.2468 50.2571C15.994 50.1349 15.7099 50.0739 15.3946 50.0739C15.0593 50.0739 14.7667 50.1435 14.5167 50.2827C14.2696 50.419 14.0778 50.6108 13.9414 50.858C13.8079 51.1051 13.7412 51.3949 13.7412 51.7273H12.7355C12.7355 51.2159 12.8534 50.767 13.0892 50.3807C13.325 49.9943 13.646 49.6932 14.0522 49.4773C14.4613 49.2614 14.9201 49.1534 15.4287 49.1534C15.94 49.1534 16.3931 49.2614 16.788 49.4773C17.1829 49.6932 17.4926 49.9844 17.717 50.3509C17.9414 50.7173 18.0537 51.125 18.0537 51.5739C18.0537 51.8949 17.9954 52.2088 17.8789 52.5156C17.7653 52.8196 17.5664 53.1591 17.2823 53.5341C17.0011 53.9062 16.6105 54.3608 16.1105 54.8977L14.1502 56.9943V57.0625H18.2071V58H12.7014Z" fill="white"/>
<path d="M1.53409 30.9091V27.0341L11.25 11.7273H14.5909V17.0909H12.6136L6.48864 26.7841V26.9659H20.2955V30.9091H1.53409ZM12.7045 35V29.7273L12.7955 28.0114V11.7273H17.4091V35H12.7045ZM25.6914 35.2955C24.9414 35.2955 24.2974 35.0303 23.7595 34.5C23.2292 33.9621 22.9641 33.3182 22.9641 32.5682C22.9641 31.8258 23.2292 31.1894 23.7595 30.6591C24.2974 30.1288 24.9414 29.8636 25.6914 29.8636C26.4186 29.8636 27.055 30.1288 27.6005 30.6591C28.1459 31.1894 28.4186 31.8258 28.4186 32.5682C28.4186 33.0682 28.2898 33.5265 28.0323 33.9432C27.7823 34.3523 27.4527 34.6818 27.0436 34.9318C26.6345 35.1742 26.1838 35.2955 25.6914 35.2955ZM32.0731 35L41.7208 15.9091V15.75H30.4822V11.7273H46.8117V15.8068L37.1526 35H32.0731Z" fill="white"/>
<path d="M61.4424 28.0056C61.7498 27.8299 62.1272 27.8299 62.4346 28.0056L64.4187 29.1392C65.1471 29.5553 66.0333 28.9437 65.9026 28.1151L65.485 25.4683C65.4368 25.1624 65.533 24.8513 65.7456 24.6261L67.5776 22.6852C68.1295 22.1005 67.8007 21.1366 67.0065 21.011L64.6152 20.633C64.2833 20.5805 63.9999 20.3648 63.8609 20.0589L62.8493 17.8322C62.494 17.0503 61.3833 17.0504 61.0283 17.8324L60.0175 20.0587C59.8786 20.3647 59.5951 20.5805 59.2631 20.633L56.8719 21.011C56.0778 21.1366 55.749 22.1005 56.3009 22.6852L58.1328 24.6259C58.3454 24.8513 58.4417 25.1624 58.3933 25.4685L57.9751 28.1144C57.8442 28.9432 58.7305 29.555 59.459 29.1388L61.4424 28.0056Z" fill="white"/>
<mask id="mask0_37_130" style="mask-type:alpha" maskUnits="userSpaceOnUse" x="86" y="0" width="68" height="68">
<rect x="86" width="68" height="68" fill="#D9D9D9"/>
</mask>
<g mask="url(#mask0_37_130)">
<path d="M146.947 54.2504L119.939 68L92.9314 54.2504V0H146.947V54.2504Z" fill="#F8F8F8"/>
<path d="M92.9938 0V54.2504L147.01 0H92.9938Z" fill="white"/>
<path d="M146.433 0.51V53.9393L119.939 67.4271L93.4452 53.9393V0.51H146.433ZM146.947 0H92.9314V54.2504L119.939 68L146.947 54.2504V0Z" fill="#DCDFDD"/>
<path d="M126.168 9.69935L119.886 13.3229L113.711 9.69935V0H126.168V9.69935Z" fill="#FF3100"/>
<path d="M122.938 4.79823H121.768C121.8 4.61548 121.913 4.51433 122.143 4.39788L122.359 4.28908C122.745 4.09273 122.949 3.87173 122.949 3.51048C122.949 3.28268 122.861 3.10333 122.684 2.97328C122.511 2.84323 122.298 2.78033 122.054 2.78033C121.86 2.78033 121.683 2.82963 121.521 2.93078C121.361 3.02938 121.242 3.15518 121.167 3.31328L121.506 3.64988C121.637 3.38638 121.828 3.25718 122.079 3.25718C122.292 3.25718 122.422 3.36598 122.422 3.51643C122.422 3.64308 122.358 3.74763 122.114 3.87088L121.976 3.93718C121.676 4.08763 121.467 4.26018 121.347 4.45653C121.227 4.64948 121.166 4.89853 121.166 5.19688V5.27763H122.937V4.79653L122.938 4.79823Z" fill="white"/>
<path d="M122.781 5.83435H120.843L119.875 7.4995H121.813L122.781 9.1655L123.751 7.4995L122.781 5.83435Z" fill="white"/>
<path d="M120.042 8.61048C118.808 8.61048 117.804 7.61428 117.804 6.38943C117.804 5.16458 118.808 4.16838 120.042 4.16838L120.808 2.57718C120.561 2.52873 120.305 2.50238 120.042 2.50238C117.879 2.50238 116.126 4.24233 116.126 6.38858C116.126 8.53483 117.879 10.2748 120.042 10.2748C120.904 10.2748 121.701 9.99768 122.348 9.52933L121.499 8.07073C121.107 8.40563 120.598 8.60878 120.042 8.60878V8.61048Z" fill="white"/>
<path d="M148.182 42.6402H91.6962L89.7778 37.8802L91.6962 33.1202H148.182L150.1 37.8802L148.182 42.6402Z" fill="#FF3100"/>
<path d="M101.696 48.2315C101.696 48.2383 101.7 48.2434 101.709 48.2477C101.904 48.3497 102.002 48.5222 102.002 48.7636C102.002 48.9812 101.926 49.1436 101.775 49.2498C101.623 49.3561 101.425 49.4096 101.179 49.4096H100.325C100.307 49.4096 100.293 49.4045 100.282 49.3935C100.271 49.3824 100.266 49.3688 100.266 49.351V47.1835C100.266 47.1665 100.271 47.152 100.282 47.141C100.293 47.1299 100.307 47.1248 100.325 47.1248H101.154C101.421 47.1248 101.623 47.175 101.76 47.2753C101.897 47.3756 101.966 47.5379 101.966 47.7615C101.966 47.985 101.88 48.1261 101.709 48.2154C101.7 48.2196 101.696 48.2256 101.696 48.2315ZM100.811 47.611V48.0097C100.811 48.025 100.819 48.0326 100.834 48.0326H101.153C101.243 48.0326 101.312 48.0139 101.36 47.9757C101.408 47.9374 101.432 47.8839 101.432 47.8142C101.432 47.7445 101.408 47.6867 101.36 47.6476C101.312 47.6085 101.243 47.5889 101.153 47.5889H100.834C100.819 47.5889 100.811 47.5966 100.811 47.6119V47.611ZM101.383 48.8826C101.431 48.8427 101.455 48.784 101.455 48.7084C101.455 48.6327 101.431 48.5775 101.384 48.5367C101.337 48.4967 101.268 48.4763 101.179 48.4763H100.833C100.818 48.4763 100.81 48.484 100.81 48.4993V48.92C100.81 48.9353 100.818 48.943 100.833 48.943H101.179C101.266 48.943 101.334 48.9226 101.382 48.8826H101.383Z" fill="#252530"/>
<path d="M103.996 47.5719C103.985 47.583 103.971 47.5881 103.953 47.5881H102.947C102.932 47.5881 102.924 47.5957 102.924 47.611V47.9995C102.924 48.0148 102.932 48.0224 102.947 48.0224H103.582C103.6 48.0224 103.613 48.0275 103.624 48.0386C103.636 48.0496 103.641 48.0632 103.641 48.0811V48.4236C103.641 48.4415 103.636 48.4551 103.624 48.4661C103.613 48.4772 103.6 48.4823 103.582 48.4823H102.947C102.932 48.4823 102.924 48.4899 102.924 48.5052V48.9234C102.924 48.9387 102.932 48.9464 102.947 48.9464H103.953C103.97 48.9464 103.985 48.9515 103.996 48.9625C104.007 48.9736 104.012 48.9872 104.012 49.005V49.351C104.012 49.3688 104.007 49.3824 103.996 49.3935C103.985 49.4045 103.971 49.4096 103.953 49.4096H102.437C102.419 49.4096 102.406 49.4045 102.395 49.3935C102.383 49.3824 102.378 49.3688 102.378 49.351V47.1835C102.378 47.1665 102.383 47.152 102.395 47.141C102.406 47.1299 102.419 47.1248 102.437 47.1248H103.953C103.97 47.1248 103.985 47.1299 103.996 47.141C104.007 47.152 104.012 47.1656 104.012 47.1835V47.5294C104.012 47.5473 104.007 47.5609 103.996 47.5719Z" fill="#252530"/>
<path d="M104.718 49.3492C104.585 49.2914 104.482 49.209 104.41 49.101C104.338 48.9931 104.302 48.869 104.302 48.727V48.6845C104.302 48.6675 104.307 48.6531 104.318 48.642C104.329 48.631 104.343 48.6259 104.361 48.6259H104.779C104.797 48.6259 104.81 48.6301 104.821 48.6369C104.833 48.6446 104.838 48.6539 104.838 48.665V48.7041C104.838 48.7738 104.874 48.8358 104.945 48.8902C105.016 48.9446 105.107 48.9718 105.22 48.9718C105.316 48.9718 105.388 48.9514 105.434 48.9098C105.48 48.8681 105.503 48.8205 105.503 48.7661C105.503 48.7049 105.477 48.6582 105.423 48.6259C105.369 48.5936 105.273 48.5553 105.135 48.512L105.063 48.489C104.922 48.4431 104.8 48.3938 104.695 48.3403C104.589 48.2867 104.499 48.2128 104.425 48.1184C104.35 48.0241 104.313 47.9068 104.313 47.7674C104.313 47.628 104.349 47.5141 104.42 47.4129C104.491 47.3118 104.589 47.2336 104.716 47.1792C104.842 47.1248 104.985 47.0976 105.145 47.0976C105.314 47.0976 105.465 47.1282 105.601 47.1894C105.735 47.2506 105.841 47.3364 105.918 47.4469C105.996 47.5583 106.033 47.6849 106.033 47.8286V47.8549C106.033 47.8728 106.028 47.8864 106.017 47.8974C106.006 47.9085 105.992 47.9136 105.974 47.9136H105.556C105.538 47.9136 105.525 47.911 105.513 47.9051C105.502 47.9 105.497 47.8915 105.497 47.8804V47.8507C105.497 47.7742 105.463 47.707 105.395 47.6484C105.328 47.5897 105.236 47.56 105.122 47.56C105.036 47.56 104.97 47.5778 104.922 47.6118C104.874 47.6467 104.85 47.696 104.85 47.7589C104.85 47.8065 104.865 47.8464 104.896 47.8779C104.927 47.9093 104.975 47.9391 105.039 47.9663C105.103 47.9935 105.203 48.0292 105.337 48.0725C105.49 48.1244 105.61 48.1703 105.696 48.2094C105.781 48.2485 105.862 48.3122 105.937 48.4006C106.013 48.489 106.051 48.6046 106.051 48.7483C106.051 48.8919 106.015 49.0058 105.942 49.1087C105.871 49.2124 105.768 49.2923 105.637 49.3484C105.505 49.4053 105.354 49.4334 105.183 49.4334C105.012 49.4334 104.853 49.4045 104.72 49.3467L104.718 49.3492Z" fill="#252530"/>
<path d="M108.07 47.141C108.081 47.152 108.086 47.1656 108.086 47.1835V47.5328C108.086 47.5507 108.081 47.5643 108.07 47.5753C108.059 47.5864 108.045 47.5915 108.027 47.5915H107.478C107.463 47.5915 107.455 47.5991 107.455 47.6144V49.351C107.455 49.3688 107.45 49.3824 107.439 49.3935C107.427 49.4045 107.414 49.4096 107.396 49.4096H106.968C106.95 49.4096 106.937 49.4045 106.926 49.3935C106.914 49.3824 106.909 49.3688 106.909 49.351V47.6144C106.909 47.5991 106.902 47.5915 106.886 47.5915H106.357C106.339 47.5915 106.325 47.5864 106.314 47.5753C106.303 47.5643 106.298 47.5507 106.298 47.5328V47.1835C106.298 47.1665 106.303 47.152 106.314 47.141C106.325 47.1299 106.339 47.1248 106.357 47.1248H108.028C108.046 47.1248 108.059 47.1299 108.071 47.141H108.07Z" fill="#252530"/>
<path d="M109.506 49.3492C109.373 49.2914 109.27 49.209 109.198 49.101C109.126 48.9931 109.09 48.869 109.09 48.727V48.6845C109.09 48.6675 109.095 48.6531 109.106 48.642C109.117 48.631 109.131 48.6259 109.149 48.6259H109.567C109.585 48.6259 109.598 48.6301 109.61 48.6369C109.621 48.6446 109.626 48.6539 109.626 48.665V48.7041C109.626 48.7738 109.662 48.8358 109.733 48.8902C109.804 48.9446 109.896 48.9718 110.008 48.9718C110.105 48.9718 110.176 48.9514 110.222 48.9098C110.268 48.8681 110.291 48.8205 110.291 48.7661C110.291 48.7049 110.265 48.6582 110.211 48.6259C110.157 48.5936 110.061 48.5553 109.923 48.512L109.851 48.489C109.711 48.4431 109.588 48.3938 109.483 48.3403C109.377 48.2867 109.287 48.2128 109.213 48.1184C109.138 48.0241 109.101 47.9068 109.101 47.7674C109.101 47.628 109.137 47.5141 109.208 47.4129C109.279 47.3118 109.377 47.2336 109.504 47.1792C109.63 47.1248 109.773 47.0976 109.933 47.0976C110.102 47.0976 110.254 47.1282 110.389 47.1894C110.523 47.2506 110.629 47.3364 110.707 47.4469C110.784 47.5583 110.821 47.6849 110.821 47.8286V47.8549C110.821 47.8728 110.816 47.8864 110.805 47.8974C110.794 47.9085 110.78 47.9136 110.762 47.9136H110.344C110.326 47.9136 110.313 47.911 110.301 47.9051C110.29 47.9 110.285 47.8915 110.285 47.8804V47.8507C110.285 47.7742 110.251 47.707 110.183 47.6484C110.116 47.5897 110.024 47.56 109.91 47.56C109.824 47.56 109.758 47.5778 109.71 47.6118C109.662 47.6467 109.638 47.696 109.638 47.7589C109.638 47.8065 109.653 47.8464 109.684 47.8779C109.715 47.9093 109.763 47.9391 109.827 47.9663C109.891 47.9935 109.991 48.0292 110.125 48.0725C110.278 48.1244 110.398 48.1703 110.484 48.2094C110.57 48.2485 110.65 48.3122 110.725 48.4006C110.801 48.489 110.839 48.6046 110.839 48.7483C110.839 48.8919 110.803 49.0058 110.731 49.1087C110.659 49.2124 110.556 49.2923 110.425 49.3484C110.293 49.4053 110.142 49.4334 109.971 49.4334C109.8 49.4334 109.641 49.4045 109.508 49.3467L109.506 49.3492Z" fill="#252530"/>
<path d="M111.575 49.3398C111.439 49.2693 111.335 49.1698 111.26 49.0415C111.186 48.9131 111.148 48.7644 111.148 48.5944V47.9416C111.148 47.7758 111.186 47.6296 111.26 47.503C111.335 47.3763 111.439 47.2769 111.575 47.2063C111.709 47.1358 111.866 47.1001 112.043 47.1001C112.22 47.1001 112.377 47.1358 112.513 47.2063C112.65 47.2769 112.755 47.3763 112.829 47.503C112.904 47.6296 112.942 47.7767 112.942 47.9416V48.5944C112.942 48.7644 112.904 48.9131 112.829 49.0415C112.755 49.1698 112.65 49.2693 112.513 49.3398C112.377 49.4104 112.22 49.4461 112.043 49.4461C111.866 49.4461 111.709 49.4104 111.575 49.3398ZM112.298 48.8808C112.363 48.8137 112.395 48.7227 112.395 48.6097V47.9339C112.395 47.8226 112.363 47.7333 112.298 47.6645C112.233 47.5956 112.149 47.5616 112.043 47.5616C111.938 47.5616 111.857 47.5956 111.791 47.6645C111.726 47.7333 111.695 47.8226 111.695 47.9339V48.6097C111.695 48.7227 111.727 48.8128 111.791 48.8808C111.856 48.948 111.94 48.982 112.043 48.982C112.147 48.982 112.233 48.948 112.298 48.8808Z" fill="#252530"/>
<path d="M114.924 47.5719C114.913 47.583 114.899 47.5881 114.881 47.5881H113.878C113.863 47.5881 113.855 47.5957 113.855 47.611V47.9995C113.855 48.0148 113.863 48.0224 113.878 48.0224H114.513C114.531 48.0224 114.545 48.0275 114.556 48.0386C114.567 48.0496 114.572 48.0632 114.572 48.0811V48.4236C114.572 48.4415 114.567 48.4551 114.556 48.4661C114.545 48.4772 114.531 48.4823 114.513 48.4823H113.878C113.863 48.4823 113.855 48.4899 113.855 48.5052V49.351C113.855 49.3688 113.85 49.3824 113.839 49.3935C113.828 49.4045 113.814 49.4096 113.796 49.4096H113.369C113.351 49.4096 113.337 49.4045 113.326 49.3935C113.315 49.3824 113.31 49.3688 113.31 49.351V47.1835C113.31 47.1665 113.315 47.152 113.326 47.141C113.337 47.1299 113.351 47.1248 113.369 47.1248H114.881C114.899 47.1248 114.913 47.1299 114.924 47.141C114.935 47.152 114.94 47.1656 114.94 47.1835V47.5294C114.94 47.5473 114.935 47.5609 114.924 47.5719Z" fill="#252530"/>
<path d="M116.91 47.141C116.921 47.152 116.926 47.1656 116.926 47.1835V47.5328C116.926 47.5507 116.921 47.5643 116.91 47.5753C116.899 47.5864 116.885 47.5915 116.867 47.5915H116.318C116.303 47.5915 116.295 47.5991 116.295 47.6144V49.351C116.295 49.3688 116.29 49.3824 116.279 49.3935C116.267 49.4045 116.254 49.4096 116.236 49.4096H115.808C115.79 49.4096 115.777 49.4045 115.766 49.3935C115.754 49.3824 115.749 49.3688 115.749 49.351V47.6144C115.749 47.5991 115.742 47.5915 115.726 47.5915H115.197C115.179 47.5915 115.165 47.5864 115.154 47.5753C115.143 47.5643 115.138 47.5507 115.138 47.5328V47.1835C115.138 47.1665 115.143 47.152 115.154 47.141C115.165 47.1299 115.179 47.1248 115.197 47.1248H116.868C116.886 47.1248 116.9 47.1299 116.911 47.141H116.91Z" fill="#252530"/>
<path d="M117.699 49.3612L117.097 47.1903C117.094 47.186 117.093 47.1792 117.093 47.1707C117.093 47.1401 117.11 47.1248 117.146 47.1248H117.606C117.624 47.1248 117.639 47.1299 117.651 47.1393C117.663 47.1486 117.67 47.1614 117.672 47.1767L117.949 48.3293C117.953 48.3378 117.958 48.342 117.963 48.342C117.969 48.342 117.973 48.3378 117.975 48.3293L118.241 47.1767C118.248 47.1418 118.269 47.1248 118.307 47.1248H118.698C118.733 47.1248 118.756 47.1427 118.764 47.1767L119.054 48.3293C119.058 48.3378 119.063 48.342 119.068 48.342C119.073 48.342 119.078 48.3378 119.079 48.3293L119.336 47.1767C119.339 47.1614 119.346 47.1486 119.358 47.1393C119.37 47.1291 119.384 47.1248 119.402 47.1248H119.849C119.869 47.1248 119.884 47.1299 119.894 47.141C119.904 47.152 119.907 47.1682 119.902 47.1903L119.356 49.3578C119.347 49.3926 119.325 49.4096 119.29 49.4096H118.852C118.834 49.4096 118.82 49.4045 118.808 49.3952C118.796 49.385 118.789 49.3731 118.786 49.3578L118.51 48.1338C118.507 48.1227 118.503 48.1176 118.497 48.1176C118.491 48.1176 118.486 48.1227 118.484 48.1338L118.234 49.3578C118.227 49.3926 118.207 49.4096 118.172 49.4096H117.764C117.729 49.4096 117.707 49.3935 117.698 49.3603L117.699 49.3612Z" fill="#252530"/>
<path d="M121.275 49.3612L121.199 49.0934C121.197 49.0807 121.188 49.0739 121.173 49.0739H120.429C120.417 49.0739 120.407 49.0807 120.403 49.0934L120.327 49.3612C120.319 49.3935 120.297 49.4105 120.262 49.4105H119.798C119.776 49.4105 119.761 49.4045 119.752 49.3926C119.743 49.3807 119.742 49.3646 119.749 49.345L120.439 47.1741C120.45 47.1418 120.473 47.1248 120.508 47.1248H121.091C121.128 47.1248 121.151 47.141 121.16 47.1741L121.854 49.345C121.856 49.3493 121.857 49.3569 121.857 49.368C121.857 49.396 121.839 49.4105 121.805 49.4105H121.341C121.306 49.4105 121.283 49.3943 121.275 49.3612ZM120.538 48.6361C120.538 48.6489 120.545 48.6557 120.558 48.6557H121.044C121.053 48.6557 121.059 48.6531 121.062 48.6472C121.066 48.6421 121.066 48.6361 121.064 48.6293L120.814 47.7615C120.811 47.7504 120.808 47.7453 120.803 47.7453C120.798 47.7453 120.793 47.7504 120.788 47.7615L120.538 48.6293V48.6361Z" fill="#252530"/>
<path d="M123.366 49.3637L122.984 48.5154C122.98 48.5044 122.971 48.4993 122.958 48.4993H122.754C122.738 48.4993 122.731 48.5069 122.731 48.5222V49.351C122.731 49.3688 122.726 49.3824 122.715 49.3935C122.703 49.4045 122.69 49.4096 122.672 49.4096H122.244C122.226 49.4096 122.213 49.4045 122.202 49.3935C122.19 49.3824 122.185 49.3688 122.185 49.351V47.1835C122.185 47.1665 122.19 47.152 122.202 47.141C122.213 47.1299 122.226 47.1248 122.244 47.1248H123.201C123.346 47.1248 123.472 47.1546 123.582 47.2132C123.692 47.2719 123.776 47.3552 123.837 47.4631C123.897 47.5711 123.928 47.6943 123.928 47.8337C123.928 47.9731 123.892 48.1023 123.821 48.2094C123.75 48.3157 123.651 48.393 123.523 48.4415C123.508 48.4483 123.503 48.4593 123.51 48.4738L123.931 49.3416L123.938 49.368C123.938 49.396 123.92 49.4105 123.886 49.4105H123.436C123.403 49.4105 123.38 49.3952 123.366 49.3646V49.3637ZM122.732 47.611V48.0615C122.732 48.0768 122.739 48.0845 122.755 48.0845H123.114C123.195 48.0845 123.26 48.0624 123.311 48.0173C123.361 47.9731 123.386 47.9136 123.386 47.8397C123.386 47.7657 123.361 47.7028 123.311 47.6569C123.26 47.611 123.194 47.5881 123.114 47.5881H122.755C122.739 47.5881 122.732 47.5957 122.732 47.611Z" fill="#252530"/>
<path d="M125.905 47.5719C125.894 47.583 125.88 47.5881 125.862 47.5881H124.856C124.84 47.5881 124.833 47.5957 124.833 47.611V47.9995C124.833 48.0148 124.84 48.0224 124.856 48.0224H125.49C125.508 48.0224 125.522 48.0275 125.533 48.0386C125.544 48.0496 125.549 48.0632 125.549 48.0811V48.4236C125.549 48.4415 125.544 48.4551 125.533 48.4661C125.522 48.4772 125.508 48.4823 125.49 48.4823H124.856C124.84 48.4823 124.833 48.4899 124.833 48.5052V48.9234C124.833 48.9387 124.84 48.9464 124.856 48.9464H125.862C125.879 48.9464 125.894 48.9515 125.905 48.9625C125.916 48.9736 125.921 48.9872 125.921 49.005V49.351C125.921 49.3688 125.916 49.3824 125.905 49.3935C125.894 49.4045 125.88 49.4096 125.862 49.4096H124.346C124.328 49.4096 124.315 49.4045 124.303 49.3935C124.292 49.3824 124.287 49.3688 124.287 49.351V47.1835C124.287 47.1665 124.292 47.152 124.303 47.141C124.315 47.1299 124.328 47.1248 124.346 47.1248H125.862C125.879 47.1248 125.894 47.1299 125.905 47.141C125.916 47.152 125.921 47.1656 125.921 47.1835V47.5294C125.921 47.5473 125.916 47.5609 125.905 47.5719Z" fill="#252530"/>
<path d="M128.46 49.3612L128.385 49.0934C128.382 49.0807 128.374 49.0739 128.358 49.0739H127.615C127.602 49.0739 127.593 49.0807 127.588 49.0934L127.513 49.3612C127.504 49.3935 127.482 49.4105 127.447 49.4105H126.984C126.961 49.4105 126.946 49.4045 126.937 49.3926C126.929 49.3807 126.927 49.3646 126.934 49.345L127.624 47.1741C127.635 47.1418 127.659 47.1248 127.694 47.1248H128.276C128.314 47.1248 128.336 47.141 128.345 47.1741L129.039 49.345C129.042 49.3493 129.042 49.3569 129.042 49.368C129.042 49.396 129.024 49.4105 128.99 49.4105H128.526C128.491 49.4105 128.469 49.3943 128.46 49.3612ZM127.724 48.6361C127.724 48.6489 127.73 48.6557 127.743 48.6557H128.23C128.238 48.6557 128.244 48.6531 128.248 48.6472C128.251 48.6421 128.251 48.6361 128.249 48.6293L127.999 47.7615C127.997 47.7504 127.993 47.7453 127.988 47.7453C127.983 47.7453 127.978 47.7504 127.974 47.7615L127.724 48.6293V48.6361Z" fill="#252530"/>
<path d="M129.4 49.3612L128.798 47.1903C128.795 47.186 128.794 47.1792 128.794 47.1707C128.794 47.1401 128.812 47.1248 128.847 47.1248H129.307C129.325 47.1248 129.34 47.1299 129.352 47.1393C129.364 47.1486 129.371 47.1614 129.373 47.1767L129.65 48.3293C129.654 48.3378 129.659 48.342 129.665 48.342C129.67 48.342 129.674 48.3378 129.676 48.3293L129.942 47.1767C129.949 47.1418 129.97 47.1248 130.008 47.1248H130.399C130.434 47.1248 130.457 47.1427 130.465 47.1767L130.755 48.3293C130.759 48.3378 130.764 48.342 130.769 48.342C130.774 48.342 130.779 48.3378 130.78 48.3293L131.037 47.1767C131.04 47.1614 131.047 47.1486 131.059 47.1393C131.071 47.1291 131.085 47.1248 131.103 47.1248H131.55C131.57 47.1248 131.585 47.1299 131.595 47.141C131.605 47.152 131.608 47.1682 131.603 47.1903L131.057 49.3578C131.049 49.3926 131.026 49.4096 130.991 49.4096H130.554C130.536 49.4096 130.521 49.4045 130.509 49.3952C130.497 49.385 130.49 49.3731 130.488 49.3578L130.211 48.1338C130.208 48.1227 130.204 48.1176 130.198 48.1176C130.192 48.1176 130.187 48.1227 130.185 48.1338L129.935 49.3578C129.928 49.3926 129.908 49.4096 129.873 49.4096H129.465C129.43 49.4096 129.408 49.3935 129.399 49.3603L129.4 49.3612Z" fill="#252530"/>
<path d="M132.974 49.3612L132.899 49.0934C132.896 49.0807 132.888 49.0739 132.872 49.0739H132.129C132.116 49.0739 132.107 49.0807 132.102 49.0934L132.027 49.3612C132.019 49.3935 131.996 49.4105 131.961 49.4105H131.498C131.476 49.4105 131.46 49.4045 131.452 49.3926C131.443 49.3807 131.441 49.3646 131.448 49.345L132.138 47.1741C132.15 47.1418 132.173 47.1248 132.208 47.1248H132.79C132.828 47.1248 132.85 47.141 132.86 47.1741L133.553 49.345C133.556 49.3493 133.557 49.3569 133.557 49.368C133.557 49.396 133.539 49.4105 133.504 49.4105H133.04C133.005 49.4105 132.983 49.3943 132.974 49.3612ZM132.238 48.6361C132.238 48.6489 132.245 48.6557 132.257 48.6557H132.744C132.752 48.6557 132.758 48.6531 132.762 48.6472C132.765 48.6421 132.765 48.6361 132.764 48.6293L132.514 47.7615C132.511 47.7504 132.508 47.7453 132.502 47.7453C132.497 47.7453 132.492 47.7504 132.488 47.7615L132.238 48.6293V48.6361Z" fill="#252530"/>
<path d="M135.067 49.3637L134.685 48.5154C134.681 48.5044 134.672 48.4993 134.659 48.4993H134.455C134.439 48.4993 134.432 48.5069 134.432 48.5222V49.351C134.432 49.3688 134.427 49.3824 134.415 49.3935C134.404 49.4045 134.391 49.4096 134.373 49.4096H133.945C133.927 49.4096 133.914 49.4045 133.902 49.3935C133.891 49.3824 133.886 49.3688 133.886 49.351V47.1835C133.886 47.1665 133.891 47.152 133.902 47.141C133.914 47.1299 133.927 47.1248 133.945 47.1248H134.902C135.047 47.1248 135.173 47.1546 135.283 47.2132C135.393 47.2719 135.477 47.3552 135.538 47.4631C135.598 47.5711 135.629 47.6943 135.629 47.8337C135.629 47.9731 135.593 48.1023 135.522 48.2094C135.451 48.3157 135.351 48.393 135.224 48.4415C135.208 48.4483 135.204 48.4593 135.211 48.4738L135.632 49.3416L135.639 49.368C135.639 49.396 135.621 49.4105 135.587 49.4105H135.136C135.104 49.4105 135.081 49.3952 135.067 49.3646V49.3637ZM134.433 47.611V48.0615C134.433 48.0768 134.44 48.0845 134.456 48.0845H134.814C134.896 48.0845 134.961 48.0624 135.011 48.0173C135.062 47.9731 135.087 47.9136 135.087 47.8397C135.087 47.7657 135.062 47.7028 135.011 47.6569C134.961 47.611 134.895 47.5881 134.814 47.5881H134.456C134.44 47.5881 134.433 47.5957 134.433 47.611Z" fill="#252530"/>
<path d="M136.004 49.3935C135.993 49.3824 135.988 49.3688 135.988 49.351V47.1835C135.988 47.1665 135.993 47.152 136.004 47.141C136.016 47.1299 136.029 47.1248 136.047 47.1248H136.866C137.037 47.1248 137.188 47.1546 137.32 47.2132C137.452 47.2719 137.554 47.356 137.626 47.4648C137.698 47.5736 137.734 47.6986 137.734 47.8405V48.6956C137.734 48.8367 137.698 48.9625 137.626 49.0713C137.554 49.1801 137.451 49.2643 137.32 49.3229C137.188 49.3816 137.037 49.4113 136.866 49.4113H136.047C136.029 49.4113 136.016 49.4062 136.004 49.3952V49.3935ZM136.557 48.9464H136.889C136.976 48.9464 137.048 48.9158 137.103 48.8537C137.158 48.7917 137.186 48.7084 137.189 48.6038V47.9315C137.189 47.8269 137.161 47.7436 137.105 47.6816C137.049 47.6195 136.976 47.5889 136.887 47.5889H136.558C136.542 47.5889 136.535 47.5966 136.535 47.6119V48.9243C136.535 48.9396 136.542 48.9472 136.558 48.9472L136.557 48.9464Z" fill="#252530"/>
<path d="M138.463 49.3492C138.33 49.2914 138.227 49.209 138.156 49.101C138.084 48.9931 138.047 48.869 138.047 48.727V48.6845C138.047 48.6675 138.052 48.6531 138.063 48.642C138.074 48.631 138.088 48.6259 138.106 48.6259H138.524C138.542 48.6259 138.555 48.6301 138.567 48.6369C138.578 48.6446 138.583 48.6539 138.583 48.665V48.7041C138.583 48.7738 138.619 48.8358 138.69 48.8902C138.761 48.9446 138.853 48.9718 138.965 48.9718C139.062 48.9718 139.133 48.9514 139.179 48.9098C139.225 48.8681 139.248 48.8205 139.248 48.7661C139.248 48.7049 139.222 48.6582 139.168 48.6259C139.114 48.5936 139.018 48.5553 138.88 48.512L138.808 48.489C138.668 48.4431 138.545 48.3938 138.44 48.3403C138.335 48.2867 138.245 48.2128 138.17 48.1184C138.096 48.0241 138.058 47.9068 138.058 47.7674C138.058 47.628 138.094 47.5141 138.165 47.4129C138.236 47.3118 138.335 47.2336 138.461 47.1792C138.587 47.1248 138.73 47.0976 138.89 47.0976C139.059 47.0976 139.211 47.1282 139.346 47.1894C139.48 47.2506 139.587 47.3364 139.664 47.4469C139.741 47.5583 139.778 47.6849 139.778 47.8286V47.8549C139.778 47.8728 139.773 47.8864 139.762 47.8974C139.751 47.9085 139.737 47.9136 139.719 47.9136H139.301C139.283 47.9136 139.27 47.911 139.259 47.9051C139.247 47.9 139.242 47.8915 139.242 47.8804V47.8507C139.242 47.7742 139.208 47.707 139.14 47.6484C139.073 47.5897 138.981 47.56 138.867 47.56C138.782 47.56 138.715 47.5778 138.667 47.6118C138.619 47.6467 138.595 47.696 138.595 47.7589C138.595 47.8065 138.61 47.8464 138.641 47.8779C138.672 47.9093 138.72 47.9391 138.784 47.9663C138.848 47.9935 138.948 48.0292 139.082 48.0725C139.235 48.1244 139.355 48.1703 139.441 48.2094C139.527 48.2485 139.607 48.3122 139.683 48.4006C139.758 48.489 139.796 48.6046 139.796 48.7483C139.796 48.8919 139.76 49.0058 139.688 49.1087C139.616 49.2124 139.513 49.2923 139.382 49.3484C139.25 49.4053 139.099 49.4334 138.928 49.4334C138.757 49.4334 138.598 49.4045 138.466 49.3467L138.463 49.3492Z" fill="#252530"/>
<path d="M107.404 20.5352C107.443 20.5735 107.462 20.6228 107.462 20.684V21.9063C107.462 21.9675 107.443 22.0168 107.404 22.055C107.366 22.0933 107.316 22.112 107.255 22.112H105.332C105.278 22.112 105.251 22.1392 105.251 22.1919V28.2694C105.251 28.3306 105.233 28.3799 105.194 28.4181C105.155 28.4564 105.106 28.4751 105.044 28.4751H103.548C103.486 28.4751 103.437 28.4564 103.398 28.4181C103.36 28.3799 103.341 28.3306 103.341 28.2694V22.1919C103.341 22.1383 103.313 22.112 103.26 22.112H101.407C101.345 22.112 101.296 22.0933 101.257 22.055C101.219 22.0168 101.2 21.9675 101.2 21.9063V20.684C101.2 20.6228 101.219 20.5735 101.257 20.5352C101.296 20.497 101.345 20.4783 101.407 20.4783H107.255C107.316 20.4783 107.366 20.497 107.404 20.5352Z" fill="#252530"/>
<path d="M108.158 28.0177C107.679 27.6522 107.354 27.1575 107.185 26.5328C107.093 26.2208 107.047 25.8774 107.047 25.5043C107.047 25.1311 107.097 24.7546 107.197 24.3959C107.374 23.7941 107.702 23.324 108.181 22.9849C108.661 22.6457 109.242 22.4766 109.925 22.4766C110.608 22.4766 111.172 22.6466 111.64 22.9849C112.108 23.324 112.434 23.7907 112.618 24.384C112.726 24.7265 112.779 25.092 112.779 25.4805C112.779 25.8307 112.738 26.1656 112.653 26.486C112.492 27.1261 112.169 27.6327 111.686 28.0058C111.202 28.379 110.611 28.566 109.913 28.566C109.215 28.566 108.637 28.3832 108.157 28.0177H108.158ZM110.472 26.7325C110.622 26.5914 110.728 26.3993 110.789 26.1554C110.835 25.9573 110.859 25.7406 110.859 25.5043C110.859 25.268 110.831 25.0546 110.778 24.8413C110.716 24.605 110.613 24.4222 110.467 24.293C110.322 24.1638 110.137 24.0992 109.915 24.0992C109.692 24.0992 109.499 24.1638 109.356 24.293C109.214 24.4222 109.112 24.6058 109.052 24.8413C108.998 25.0087 108.971 25.2297 108.971 25.5043C108.971 25.7406 108.994 25.9573 109.04 26.1554C109.11 26.3993 109.217 26.5914 109.362 26.7325C109.508 26.8736 109.692 26.9442 109.915 26.9442C110.137 26.9442 110.323 26.8736 110.473 26.7325H110.472Z" fill="#252530"/>
<path d="M119.387 25.5502C119.387 26.0908 119.306 26.5711 119.145 26.9893C118.969 27.4619 118.683 27.8444 118.288 28.1376C117.892 28.4309 117.449 28.5771 116.959 28.5771C116.375 28.5771 115.938 28.402 115.647 28.0518C115.623 28.0212 115.602 28.0101 115.583 28.0178C115.564 28.0254 115.554 28.0484 115.554 28.0866V30.3604C115.554 30.4216 115.535 30.4709 115.497 30.5091C115.458 30.5474 115.408 30.5661 115.347 30.5661H113.851C113.789 30.5661 113.739 30.5474 113.701 30.5091C113.662 30.4709 113.643 30.4216 113.643 30.3604V22.775C113.643 22.7138 113.662 22.6645 113.701 22.6262C113.739 22.588 113.789 22.5693 113.851 22.5693H115.347C115.408 22.5693 115.458 22.588 115.497 22.6262C115.535 22.6645 115.554 22.7138 115.554 22.775V23.0495C115.554 23.0878 115.563 23.1107 115.583 23.1184C115.602 23.126 115.623 23.115 115.647 23.0844C115.938 22.6806 116.375 22.4792 116.959 22.4792C117.457 22.4792 117.918 22.6432 118.34 22.9705C118.762 23.2977 119.05 23.721 119.203 24.2387C119.326 24.6118 119.387 25.0496 119.387 25.5528L119.387 25.5502ZM117.338 25.5162C117.338 25.1278 117.273 24.8116 117.142 24.5676C116.981 24.2863 116.746 24.1452 116.44 24.1452C116.133 24.1452 115.921 24.2897 115.76 24.5795C115.63 24.8235 115.565 25.1354 115.565 25.5162C115.565 25.9353 115.635 26.2702 115.772 26.5218C115.933 26.781 116.156 26.9102 116.44 26.9102C116.739 26.9102 116.97 26.7768 117.131 26.5107C117.269 26.2591 117.338 25.9285 117.338 25.5171V25.5162Z" fill="#252530"/>
<path d="M123.53 20.4773H125.107C125.169 20.4773 125.218 20.496 125.257 20.5343C125.295 20.5725 125.314 20.6218 125.314 20.683V28.2684C125.314 28.3296 125.295 28.3789 125.257 28.4172C125.218 28.4554 125.169 28.4741 125.107 28.4741H123.611C123.549 28.4741 123.5 28.4554 123.461 28.4172C123.422 28.3789 123.404 28.3296 123.404 28.2684V22.2938C123.404 22.2708 123.396 22.2521 123.38 22.2368C123.365 22.2215 123.346 22.2181 123.323 22.2258L122.356 22.3397H122.322C122.199 22.3397 122.138 22.2751 122.138 22.1459V21.0834C122.138 20.9771 122.195 20.9006 122.311 20.8547L123.278 20.5232C123.347 20.4926 123.431 20.4773 123.531 20.4773H123.53Z" fill="#252530"/>
<path d="M126.995 27.8749C126.488 27.3836 126.235 26.7155 126.235 25.8698V23.0826C126.235 22.2445 126.488 21.5858 126.995 21.1064C127.501 20.6261 128.195 20.3864 129.078 20.3864C129.961 20.3864 130.659 20.6287 131.173 21.1115C131.687 21.5951 131.945 22.2522 131.945 23.0818V25.8689C131.945 26.7147 131.688 27.3828 131.173 27.8741C130.659 28.3654 129.96 28.611 129.078 28.611C128.196 28.611 127.502 28.3654 126.995 27.8741V27.8749ZM129.774 26.7096C129.947 26.5311 130.033 26.2854 130.033 25.9726V23.0138C130.033 22.7018 129.947 22.4562 129.774 22.2768C129.601 22.0983 129.369 22.0082 129.078 22.0082C128.787 22.0082 128.568 22.0975 128.399 22.2768C128.23 22.4562 128.146 22.7018 128.146 23.0138V25.9726C128.146 26.2854 128.228 26.5302 128.393 26.7096C128.558 26.8889 128.786 26.9782 129.078 26.9782C129.37 26.9782 129.602 26.8889 129.774 26.7096Z" fill="#252530"/>
<path d="M133.568 27.8749C133.061 27.3836 132.808 26.7155 132.808 25.8698V23.0826C132.808 22.2445 133.061 21.5858 133.568 21.1064C134.074 20.6261 134.768 20.3864 135.651 20.3864C136.534 20.3864 137.232 20.6287 137.746 21.1115C138.26 21.5951 138.518 22.2522 138.518 23.0818V25.8689C138.518 26.7147 138.261 27.3828 137.746 27.8741C137.232 28.3654 136.533 28.611 135.651 28.611C134.769 28.611 134.075 28.3654 133.568 27.8741V27.8749ZM136.347 26.7096C136.52 26.5311 136.606 26.2854 136.606 25.9726V23.0138C136.606 22.7018 136.52 22.4562 136.347 22.2768C136.174 22.0983 135.942 22.0082 135.651 22.0082C135.36 22.0082 135.141 22.0975 134.972 22.2768C134.803 22.4562 134.719 22.7018 134.719 23.0138V25.9726C134.719 26.2854 134.801 26.5302 134.966 26.7096C135.131 26.8889 135.359 26.9782 135.651 26.9782C135.943 26.9782 136.175 26.8889 136.347 26.7096Z" fill="#252530"/>
<path d="M114.33 56.3099C114.334 56.3184 114.343 56.3227 114.357 56.3227H116.025C116.046 56.3227 116.065 56.3303 116.081 56.3456C116.096 56.3609 116.104 56.3796 116.104 56.4009V57.1667C116.104 57.1888 116.096 57.2067 116.081 57.222C116.065 57.2373 116.047 57.2449 116.025 57.2449H112.956C112.934 57.2449 112.916 57.2373 112.901 57.222C112.885 57.2067 112.878 57.1888 112.878 57.1667V56.4459C112.878 56.4068 112.89 56.3745 112.917 56.3482C113.179 56.1059 113.525 55.7574 113.957 55.3027L114.35 54.8938C114.746 54.4867 114.945 54.19 114.945 54.0039C114.945 53.8781 114.898 53.7744 114.804 53.6919C114.71 53.6095 114.589 53.5687 114.441 53.5687C114.293 53.5687 114.173 53.6095 114.082 53.6919C113.99 53.7744 113.945 53.8823 113.945 54.0166V54.1722C113.945 54.1943 113.937 54.2121 113.921 54.2274C113.906 54.2427 113.888 54.2504 113.866 54.2504H112.924C112.901 54.2504 112.884 54.2427 112.868 54.2274C112.853 54.2121 112.845 54.1943 112.845 54.1722V53.8475C112.862 53.6052 112.943 53.3927 113.087 53.2108C113.231 53.0289 113.421 52.8895 113.657 52.7918C113.892 52.694 114.154 52.6456 114.442 52.6456C114.765 52.6456 115.048 52.7051 115.289 52.8241C115.532 52.9431 115.717 53.1046 115.845 53.3077C115.973 53.5109 116.038 53.7361 116.038 53.9826C116.038 54.1603 115.994 54.3396 115.907 54.5215C115.819 54.7034 115.688 54.8964 115.514 55.0995C115.392 55.2466 115.255 55.3962 115.102 55.5475C114.95 55.6988 114.739 55.9028 114.468 56.1578L114.337 56.281C114.328 56.2895 114.326 56.298 114.33 56.3074V56.3099Z" fill="#252530"/>
<path d="M117.013 56.9041C116.725 56.6253 116.581 56.2453 116.581 55.7642V54.1798C116.581 53.7038 116.725 53.329 117.013 53.0561C117.301 52.7833 117.696 52.6473 118.197 52.6473C118.699 52.6473 119.096 52.785 119.388 53.0595C119.68 53.3341 119.826 53.7081 119.826 54.1798V55.7642C119.826 56.2445 119.68 56.6244 119.388 56.9041C119.096 57.1829 118.698 57.3231 118.197 57.3231C117.696 57.3231 117.302 57.1837 117.013 56.9041ZM118.593 56.2419C118.692 56.1399 118.74 56.0005 118.74 55.8229V54.1416C118.74 53.9639 118.692 53.8245 118.593 53.7225C118.495 53.6205 118.363 53.5695 118.197 53.5695C118.032 53.5695 117.907 53.6205 117.811 53.7225C117.715 53.8245 117.667 53.9639 117.667 54.1416V55.8229C117.667 56.0005 117.714 56.1399 117.808 56.2419C117.901 56.3439 118.031 56.3949 118.197 56.3949C118.362 56.3949 118.495 56.3439 118.592 56.2419H118.593Z" fill="#252530"/>
<path d="M121.78 56.3099C121.784 56.3184 121.792 56.3227 121.806 56.3227H123.474C123.496 56.3227 123.515 56.3303 123.53 56.3456C123.546 56.3609 123.553 56.3796 123.553 56.4009V57.1667C123.553 57.1888 123.546 57.2067 123.53 57.222C123.515 57.2373 123.497 57.2449 123.474 57.2449H120.406C120.384 57.2449 120.366 57.2373 120.35 57.222C120.335 57.2067 120.327 57.1888 120.327 57.1667V56.4459C120.327 56.4068 120.34 56.3745 120.366 56.3482C120.629 56.1059 120.975 55.7574 121.407 55.3027L121.799 54.8938C122.196 54.4867 122.394 54.19 122.394 54.0039C122.394 53.8781 122.347 53.7744 122.254 53.6919C122.16 53.6095 122.039 53.5687 121.891 53.5687C121.743 53.5687 121.623 53.6095 121.531 53.6919C121.44 53.7744 121.394 53.8823 121.394 54.0166V54.1722C121.394 54.1943 121.386 54.2121 121.371 54.2274C121.356 54.2427 121.338 54.2504 121.315 54.2504H120.373C120.351 54.2504 120.333 54.2427 120.318 54.2274C120.302 54.2121 120.295 54.1943 120.295 54.1722V53.8475C120.312 53.6052 120.393 53.3927 120.537 53.2108C120.681 53.0289 120.871 52.8895 121.106 52.7918C121.342 52.694 121.604 52.6456 121.892 52.6456C122.215 52.6456 122.497 52.7051 122.739 52.8241C122.981 52.9431 123.166 53.1046 123.295 53.3077C123.423 53.5109 123.487 53.7361 123.487 53.9826C123.487 54.1603 123.444 54.3396 123.356 54.5215C123.269 54.7034 123.138 54.8964 122.964 55.0995C122.842 55.2466 122.705 55.3962 122.552 55.5475C122.4 55.6988 122.188 55.9028 121.917 56.1578L121.786 56.281C121.778 56.2895 121.775 56.298 121.78 56.3074V56.3099Z" fill="#252530"/>
<path d="M127.034 55.732C127.034 55.9657 126.99 56.1842 126.903 56.3882C126.79 56.6695 126.604 56.8914 126.347 57.0537C126.089 57.2161 125.787 57.2968 125.437 57.2968C125.088 57.2968 124.796 57.2135 124.535 57.0469C124.273 56.8803 124.083 56.6542 123.965 56.3686C123.895 56.1952 123.854 56.0048 123.841 55.7974C123.841 55.7456 123.868 55.7192 123.92 55.7192H124.862C124.914 55.7192 124.942 55.7456 124.947 55.7974C124.955 55.9054 124.982 56.0099 125.025 56.1094C125.061 56.1961 125.113 56.2624 125.182 56.3074C125.252 56.3525 125.335 56.3754 125.431 56.3754C125.614 56.3754 125.751 56.293 125.842 56.1289C125.903 56.021 125.934 55.8782 125.934 55.7005C125.934 55.5229 125.903 55.3758 125.842 55.2458C125.751 55.086 125.611 55.0052 125.424 55.0052C125.376 55.0052 125.323 55.0214 125.264 55.0537C125.204 55.086 125.129 55.1344 125.037 55.1999C125.015 55.2126 124.998 55.2194 124.985 55.2194C124.959 55.2194 124.94 55.2067 124.926 55.1803L124.462 54.5309C124.449 54.5097 124.442 54.4918 124.442 54.4791C124.442 54.4527 124.453 54.434 124.475 54.4204L125.482 53.6605C125.49 53.652 125.494 53.6435 125.491 53.6342C125.489 53.6257 125.482 53.6214 125.468 53.6214H124.035C124.013 53.6214 123.995 53.6138 123.98 53.5985C123.964 53.5832 123.957 53.5653 123.957 53.5432V52.7774C123.957 52.7561 123.964 52.7374 123.98 52.7221C123.995 52.7068 124.013 52.6992 124.035 52.6992H126.888C126.91 52.6992 126.928 52.7068 126.944 52.7221C126.959 52.7374 126.967 52.7561 126.967 52.7774V53.641C126.967 53.6801 126.952 53.7124 126.921 53.7387L126.129 54.3558C126.121 54.3643 126.117 54.3728 126.12 54.3822C126.122 54.3907 126.129 54.3975 126.143 54.4017C126.492 54.4927 126.745 54.7137 126.902 55.0639C126.989 55.2713 127.033 55.4948 127.033 55.7328L127.034 55.732Z" fill="#252530"/>
<path d="M100.203 39.3983C100.009 39.3133 99.8596 39.1943 99.7543 39.0413C99.6489 38.8883 99.5967 38.7081 99.5967 38.5024V38.4191C99.5967 38.3639 99.6249 38.3358 99.6806 38.3358H100.199C100.254 38.3358 100.283 38.3571 100.283 38.3996V38.4684C100.283 38.5993 100.343 38.709 100.463 38.7991C100.582 38.8892 100.74 38.9334 100.934 38.9334C101.108 38.9334 101.237 38.8968 101.321 38.8229C101.405 38.7498 101.447 38.6588 101.447 38.5509C101.447 38.4727 101.42 38.4064 101.368 38.3528C101.315 38.2993 101.244 38.2517 101.155 38.2109C101.066 38.1701 100.923 38.114 100.726 38.0417C100.503 37.9669 100.315 37.8896 100.164 37.8114C100.012 37.7332 99.8844 37.6261 99.7791 37.4909C99.6738 37.3558 99.6215 37.1883 99.6215 36.9894C99.6215 36.7905 99.6729 36.6222 99.7748 36.4752C99.8767 36.3281 100.019 36.2159 100.201 36.1377C100.384 36.0595 100.592 36.0204 100.826 36.0204C101.076 36.0204 101.299 36.0646 101.496 36.153C101.693 36.2414 101.847 36.3647 101.958 36.5228C102.068 36.6809 102.123 36.8645 102.123 37.0736V37.1229C102.123 37.1781 102.095 37.2062 102.039 37.2062H101.521C101.465 37.2062 101.437 37.19 101.437 37.1569V37.1076C101.437 36.9707 101.381 36.8534 101.267 36.7574C101.153 36.6613 100.998 36.6129 100.801 36.6129C100.643 36.6129 100.522 36.6452 100.436 36.7106C100.35 36.7761 100.308 36.8653 100.308 36.9801C100.308 37.0617 100.332 37.1305 100.381 37.1858C100.431 37.241 100.505 37.292 100.606 37.3379C100.706 37.3838 100.862 37.4425 101.071 37.5139C101.302 37.5989 101.484 37.6728 101.619 37.7366C101.753 37.8003 101.875 37.8972 101.981 38.0281C102.088 38.159 102.141 38.3265 102.141 38.5322C102.141 38.7379 102.09 38.9062 101.986 39.0558C101.882 39.2062 101.736 39.3218 101.547 39.4034C101.357 39.485 101.135 39.5258 100.878 39.5258C100.621 39.5258 100.396 39.4833 100.202 39.3983H100.203Z" fill="white"/>
<path d="M102.995 39.3098C102.798 39.1662 102.663 38.9707 102.591 38.7225C102.544 38.5695 102.521 38.4029 102.521 38.2227C102.521 38.0238 102.546 37.8504 102.595 37.7033C102.67 37.4619 102.806 37.2724 103.002 37.1355C103.197 36.9987 103.435 36.9298 103.714 36.9298C103.993 36.9298 104.215 36.9987 104.407 37.1355C104.6 37.2724 104.733 37.4602 104.809 37.6982C104.858 37.8487 104.882 38.0195 104.882 38.2125C104.882 38.3825 104.861 38.5474 104.818 38.7072C104.743 38.9622 104.607 39.1619 104.411 39.3073C104.215 39.4526 103.981 39.5249 103.708 39.5249C103.435 39.5249 103.19 39.4535 102.993 39.3098H102.995ZM103.981 38.8347C104.057 38.7692 104.112 38.68 104.144 38.5652C104.171 38.4768 104.184 38.3629 104.184 38.2227C104.184 38.0824 104.171 37.9694 104.144 37.875C104.112 37.7637 104.057 37.6778 103.981 37.6158C103.906 37.5537 103.812 37.5231 103.701 37.5231C103.589 37.5231 103.5 37.5546 103.424 37.6158C103.349 37.6778 103.294 37.7645 103.261 37.875C103.235 37.9694 103.222 38.0858 103.222 38.2227C103.222 38.3595 103.235 38.4709 103.261 38.5652C103.294 38.6791 103.349 38.7692 103.427 38.8347C103.504 38.9001 103.599 38.9324 103.71 38.9324C103.815 38.9324 103.905 38.9001 103.981 38.8347Z" fill="white"/>
<path d="M106.769 37.048V37.4645C106.769 37.5197 106.741 37.5478 106.685 37.5478H106.237C106.217 37.5478 106.207 37.558 106.207 37.5775V39.4042C106.207 39.4594 106.178 39.4875 106.123 39.4875H105.595C105.54 39.4875 105.511 39.4594 105.511 39.4042V37.5775C105.511 37.558 105.501 37.5478 105.482 37.5478H105.221C105.165 37.5478 105.137 37.5197 105.137 37.4645V37.048C105.137 36.9927 105.165 36.9647 105.221 36.9647H105.482C105.502 36.9647 105.511 36.9545 105.511 36.9349V36.8321C105.511 36.6298 105.543 36.4725 105.605 36.3595C105.667 36.2473 105.768 36.1665 105.908 36.1198C106.047 36.0722 106.241 36.0518 106.488 36.0586H106.65C106.706 36.0586 106.734 36.0866 106.734 36.1419V36.4895C106.734 36.5448 106.706 36.5728 106.65 36.5728H106.512C106.398 36.5762 106.317 36.6 106.274 36.6442C106.229 36.6884 106.207 36.7692 106.207 36.8865V36.9358C106.207 36.9553 106.217 36.9655 106.237 36.9655H106.685C106.741 36.9655 106.769 36.9936 106.769 37.0488V37.048Z" fill="white"/>
<path d="M108.545 37.5232H108.102C108.082 37.5232 108.072 37.5334 108.072 37.5529V38.5661C108.072 38.6741 108.094 38.7531 108.139 38.8033C108.183 38.8543 108.254 38.8789 108.353 38.8789H108.491C108.546 38.8789 108.574 38.907 108.574 38.9622V39.383C108.574 39.4348 108.546 39.4646 108.491 39.4714C108.365 39.4782 108.275 39.4816 108.219 39.4816C107.946 39.4816 107.742 39.4357 107.608 39.3447C107.472 39.2538 107.404 39.0838 107.4 38.8356V37.5529C107.4 37.5334 107.391 37.5232 107.371 37.5232H107.119C107.064 37.5232 107.035 37.4951 107.035 37.4399V37.0531C107.035 36.9979 107.064 36.9698 107.119 36.9698H107.371C107.391 36.9698 107.4 36.9596 107.4 36.9401V36.3867C107.4 36.3315 107.429 36.3034 107.484 36.3034H107.988C108.043 36.3034 108.072 36.3315 108.072 36.3867V36.9401C108.072 36.9596 108.082 36.9698 108.102 36.9698H108.545C108.601 36.9698 108.629 36.9979 108.629 37.0531V37.4399C108.629 37.4951 108.601 37.5232 108.545 37.5232Z" fill="white"/>
<path d="M109.612 39.4178L108.916 37.0624C108.913 37.0556 108.911 37.0463 108.911 37.0327C108.911 36.9902 108.936 36.9689 108.985 36.9689H109.528C109.58 36.9689 109.612 36.9936 109.621 37.042L109.961 38.4913C109.965 38.504 109.971 38.5108 109.981 38.5108C109.99 38.5108 109.997 38.504 110 38.4913L110.365 37.042C110.376 36.9927 110.406 36.9689 110.459 36.9689H110.942C110.994 36.9689 111.026 36.9936 111.035 37.042L111.41 38.4964C111.414 38.5091 111.42 38.5159 111.43 38.5159C111.439 38.5159 111.446 38.5091 111.45 38.4964L111.825 37.042C111.835 36.9927 111.866 36.9689 111.918 36.9689L112.461 36.974C112.491 36.974 112.511 36.9834 112.523 37.0012C112.534 37.0191 112.536 37.0412 112.53 37.0675L111.825 39.4178C111.808 39.4637 111.777 39.4866 111.731 39.4866H111.179C111.133 39.4866 111.102 39.4637 111.086 39.4178L110.716 38.1351C110.709 38.1224 110.702 38.1156 110.693 38.1156C110.685 38.1156 110.68 38.1224 110.676 38.1351L110.351 39.4127C110.34 39.462 110.31 39.4858 110.257 39.4858H109.705C109.659 39.4858 109.628 39.4628 109.612 39.4169V39.4178Z" fill="white"/>
<path d="M114.366 37.0403C114.534 37.1134 114.665 37.2137 114.758 37.3412C114.852 37.4687 114.899 37.6107 114.899 37.7671V39.4025C114.899 39.4577 114.87 39.4858 114.815 39.4858H114.287C114.231 39.4858 114.203 39.4577 114.203 39.4025V39.2852C114.203 39.2724 114.2 39.2648 114.193 39.2631C114.186 39.2614 114.178 39.2656 114.168 39.275C114.017 39.4416 113.791 39.5249 113.492 39.5249C113.239 39.5249 113.035 39.4628 112.881 39.3387C112.726 39.2146 112.649 39.0319 112.649 38.7905C112.649 38.5491 112.738 38.3442 112.915 38.2057C113.092 38.0671 113.346 37.9974 113.675 37.9974H114.173C114.193 37.9974 114.203 37.9872 114.203 37.9677V37.8648C114.203 37.7569 114.17 37.6727 114.102 37.6124C114.034 37.552 113.937 37.5214 113.808 37.5214C113.71 37.5214 113.629 37.5376 113.564 37.5707C113.5 37.603 113.456 37.6489 113.433 37.7076C113.414 37.7535 113.381 37.7747 113.335 37.7713L112.788 37.7025C112.761 37.6991 112.74 37.6923 112.726 37.6804C112.711 37.6693 112.705 37.6532 112.709 37.6336C112.725 37.5002 112.782 37.3786 112.879 37.2715C112.976 37.1636 113.104 37.0794 113.264 37.0191C113.423 36.9587 113.6 36.9281 113.794 36.9281C114.008 36.9281 114.198 36.9647 114.366 37.0386V37.0403ZM114.055 38.8984C114.154 38.8236 114.203 38.7267 114.203 38.6094V38.4377C114.203 38.4182 114.193 38.408 114.173 38.408H113.823C113.675 38.408 113.558 38.436 113.473 38.4913C113.387 38.5465 113.344 38.6256 113.344 38.7259C113.344 38.8143 113.377 38.8831 113.44 38.9341C113.504 38.9851 113.589 39.0098 113.694 39.0098C113.836 39.0098 113.956 38.9724 114.055 38.8976V38.8984Z" fill="white"/>
<path d="M116.906 36.9945C116.946 37.014 116.96 37.048 116.951 37.0973L116.858 37.6116C116.854 37.6413 116.846 37.6592 116.83 37.6651C116.816 37.6719 116.792 37.6719 116.759 37.6651C116.706 37.6524 116.659 37.6456 116.616 37.6456C116.593 37.6456 116.555 37.649 116.503 37.6558C116.385 37.666 116.285 37.7085 116.203 37.7858C116.12 37.8623 116.079 37.9643 116.079 38.0918V39.4042C116.079 39.4595 116.051 39.4875 115.995 39.4875H115.468C115.412 39.4875 115.384 39.4595 115.384 39.4042V37.054C115.384 36.9987 115.412 36.9707 115.468 36.9707H115.995C116.051 36.9707 116.079 36.9987 116.079 37.054V37.2061C116.079 37.2189 116.083 37.2274 116.089 37.2308C116.096 37.2342 116.104 37.2308 116.114 37.2206C116.246 37.031 116.423 36.9367 116.647 36.9367C116.752 36.9367 116.84 36.9562 116.908 36.9953L116.906 36.9945Z" fill="white"/>
<path d="M118.93 38.7174C118.95 38.6944 118.971 38.6834 118.994 38.6834C119.014 38.6834 119.032 38.6919 119.048 38.708L119.329 38.9775C119.349 38.997 119.359 39.0166 119.359 39.0361C119.359 39.0591 119.352 39.0786 119.339 39.0948C119.231 39.2291 119.092 39.3336 118.922 39.411C118.753 39.4883 118.568 39.5257 118.367 39.5257C118.065 39.5257 117.814 39.4492 117.615 39.2954C117.416 39.1424 117.281 38.9316 117.213 38.6638C117.174 38.5202 117.154 38.3689 117.154 38.2082C117.154 38.0187 117.172 37.8589 117.208 37.7288C117.274 37.4874 117.406 37.2928 117.605 37.1466C117.804 36.9995 118.04 36.9264 118.313 36.9264C118.635 36.9264 118.891 37.0208 119.081 37.2103C119.27 37.3999 119.392 37.6659 119.448 38.0085C119.461 38.1164 119.471 38.2354 119.478 38.3655C119.478 38.4207 119.45 38.4488 119.394 38.4488H117.88C117.86 38.4488 117.85 38.459 117.85 38.4785C117.86 38.5474 117.871 38.5975 117.884 38.6307C117.917 38.7318 117.982 38.8092 118.08 38.8636C118.176 38.9171 118.295 38.9443 118.432 38.9443C118.65 38.9341 118.815 38.8593 118.931 38.7191L118.93 38.7174ZM118.039 37.5988C117.968 37.6498 117.92 37.7203 117.894 37.8121C117.877 37.8742 117.867 37.915 117.864 37.9345C117.86 37.9541 117.869 37.9643 117.889 37.9643H118.727C118.743 37.9643 118.752 37.9575 118.752 37.9447C118.752 37.909 118.745 37.8716 118.732 37.8325C118.702 37.7382 118.652 37.6625 118.579 37.6073C118.506 37.552 118.414 37.524 118.302 37.524C118.197 37.524 118.109 37.5495 118.038 37.5996L118.039 37.5988Z" fill="white"/>
<path d="M122.934 36.1861C123.098 36.2745 123.226 36.3995 123.316 36.561C123.407 36.7225 123.451 36.9078 123.451 37.1169C123.451 37.326 123.404 37.5036 123.311 37.66C123.218 37.8164 123.086 37.938 122.916 38.0247C122.746 38.1114 122.552 38.1547 122.331 38.1547H121.636C121.616 38.1547 121.606 38.1649 121.606 38.1845V39.4034C121.606 39.4586 121.577 39.4866 121.522 39.4866H120.994C120.939 39.4866 120.91 39.4586 120.91 39.4034V36.1377C120.91 36.0824 120.939 36.0544 120.994 36.0544H122.361C122.578 36.0544 122.769 36.0986 122.933 36.187L122.934 36.1861ZM122.623 37.4713C122.715 37.3846 122.761 37.2716 122.761 37.1313C122.761 36.9911 122.715 36.8721 122.623 36.7837C122.531 36.6953 122.409 36.6511 122.258 36.6511H121.637C121.617 36.6511 121.607 36.6613 121.607 36.6808V37.5716C121.607 37.5911 121.617 37.6014 121.637 37.6014H122.258C122.41 37.6014 122.532 37.558 122.623 37.4713Z" fill="white"/>
<path d="M125.362 36.9945C125.401 37.014 125.416 37.048 125.406 37.0973L125.313 37.6116C125.309 37.6413 125.301 37.6592 125.285 37.6651C125.271 37.6719 125.247 37.6719 125.214 37.6651C125.161 37.6524 125.114 37.6456 125.071 37.6456C125.048 37.6456 125.011 37.649 124.958 37.6558C124.84 37.666 124.74 37.7085 124.658 37.7858C124.576 37.8623 124.534 37.9643 124.534 38.0918V39.4042C124.534 39.4595 124.506 39.4875 124.45 39.4875H123.923C123.867 39.4875 123.839 39.4595 123.839 39.4042V37.054C123.839 36.9987 123.867 36.9707 123.923 36.9707H124.45C124.506 36.9707 124.534 36.9987 124.534 37.054V37.2061C124.534 37.2189 124.538 37.2274 124.545 37.2308C124.552 37.2342 124.559 37.2308 124.57 37.2206C124.701 37.031 124.879 36.9367 125.102 36.9367C125.208 36.9367 125.295 36.9562 125.363 36.9953L125.362 36.9945Z" fill="white"/>
<path d="M126.072 39.3098C125.875 39.1662 125.739 38.9707 125.667 38.7225C125.621 38.5695 125.598 38.4029 125.598 38.2227C125.598 38.0238 125.623 37.8504 125.672 37.7033C125.747 37.4619 125.883 37.2724 126.078 37.1355C126.274 36.9987 126.512 36.9298 126.791 36.9298C127.07 36.9298 127.292 36.9987 127.484 37.1355C127.677 37.2724 127.81 37.4602 127.886 37.6982C127.935 37.8487 127.959 38.0195 127.959 38.2125C127.959 38.3825 127.938 38.5474 127.895 38.7072C127.82 38.9622 127.683 39.1619 127.488 39.3073C127.292 39.4526 127.058 39.5249 126.785 39.5249C126.512 39.5249 126.267 39.4535 126.07 39.3098H126.072ZM127.058 38.8347C127.134 38.7692 127.188 38.68 127.221 38.5652C127.247 38.4768 127.26 38.3629 127.26 38.2227C127.26 38.0824 127.247 37.9694 127.221 37.875C127.188 37.7637 127.134 37.6778 127.058 37.6158C126.983 37.5537 126.889 37.5231 126.777 37.5231C126.666 37.5231 126.577 37.5546 126.501 37.6158C126.425 37.6778 126.371 37.7645 126.338 37.875C126.311 37.9694 126.299 38.0858 126.299 38.2227C126.299 38.3595 126.311 38.4709 126.338 38.5652C126.371 38.6791 126.426 38.7692 126.503 38.8347C126.58 38.9001 126.675 38.9324 126.787 38.9324C126.892 38.9324 126.982 38.9001 127.058 38.8347Z" fill="white"/>
<path d="M130.024 36.0587H130.552C130.608 36.0587 130.636 36.0867 130.636 36.142V39.4026C130.636 39.4578 130.608 39.4859 130.552 39.4859H130.024C129.969 39.4859 129.94 39.4578 129.94 39.4026V39.27C129.94 39.2572 129.936 39.2495 129.929 39.2478C129.92 39.2461 129.913 39.2504 129.906 39.2598C129.772 39.4357 129.584 39.5241 129.344 39.5241C129.12 39.5241 128.922 39.4578 128.749 39.3261C128.576 39.1935 128.457 39.0201 128.391 38.805C128.336 38.6486 128.307 38.4523 128.307 38.2177C128.307 37.9831 128.338 37.774 128.401 37.6108C128.473 37.4017 128.592 37.2351 128.759 37.111C128.925 36.9869 129.119 36.9248 129.344 36.9248C129.587 36.9248 129.774 37.0047 129.906 37.1645C129.913 37.1747 129.92 37.1773 129.929 37.1747C129.937 37.1713 129.94 37.1637 129.94 37.1501V36.1411C129.94 36.0859 129.969 36.0578 130.024 36.0578V36.0587ZM129.935 38.2279C129.935 38.0128 129.901 37.8445 129.832 37.7238C129.75 37.5963 129.639 37.5326 129.501 37.5326C129.35 37.5326 129.235 37.5946 129.156 37.7187C129.077 37.8496 129.038 38.0204 129.038 38.2329C129.038 38.4259 129.072 38.5857 129.141 38.7132C129.22 38.8535 129.34 38.924 129.502 38.924C129.647 38.924 129.759 38.8535 129.838 38.7132C129.904 38.5925 129.936 38.431 129.936 38.2287L129.935 38.2279Z" fill="white"/>
<path d="M132.722 36.9698H133.25C133.306 36.9698 133.334 36.9979 133.334 37.0531V39.4034C133.334 39.4586 133.306 39.4867 133.25 39.4867H132.722C132.667 39.4867 132.638 39.4586 132.638 39.4034V39.2708C132.638 39.258 132.634 39.2504 132.626 39.2487C132.618 39.247 132.611 39.2512 132.604 39.2606C132.476 39.434 132.274 39.5198 131.998 39.5198C131.748 39.5198 131.542 39.445 131.381 39.2946C131.22 39.1441 131.14 38.9342 131.14 38.663V37.0523C131.14 36.997 131.168 36.969 131.224 36.969H131.747C131.803 36.969 131.831 36.997 131.831 37.0523V38.4913C131.831 38.6222 131.866 38.7276 131.937 38.8092C132.008 38.8908 132.106 38.9316 132.231 38.9316C132.342 38.9316 132.435 38.8985 132.507 38.8313C132.579 38.7642 132.624 38.6775 132.641 38.5695V37.0514C132.641 36.9962 132.669 36.9681 132.725 36.9681L132.722 36.9698Z" fill="white"/>
<path d="M134.278 39.3294C134.085 39.1985 133.948 39.0191 133.866 38.7905C133.811 38.6273 133.782 38.4343 133.782 38.2125C133.782 37.9906 133.811 37.8045 133.866 37.6447C133.945 37.4228 134.081 37.2477 134.276 37.1211C134.47 36.9936 134.698 36.9298 134.962 36.9298C135.225 36.9298 135.456 36.9953 135.654 37.1253C135.853 37.2562 135.986 37.4211 136.052 37.62C136.071 37.6659 136.084 37.7161 136.091 37.7722V37.7824C136.091 37.8249 136.066 37.8512 136.018 37.8606L135.499 37.9388L135.475 37.9439C135.435 37.9439 135.412 37.9243 135.405 37.8852L135.391 37.8164C135.368 37.7314 135.317 37.6617 135.237 37.6056C135.159 37.5503 135.064 37.5223 134.956 37.5223C134.849 37.5223 134.762 37.5486 134.69 37.6005C134.617 37.6523 134.567 37.7246 134.537 37.8155C134.501 37.9133 134.483 38.0476 134.483 38.2167C134.483 38.3859 134.499 38.5202 134.533 38.6179C134.562 38.7157 134.614 38.7922 134.688 38.8483C134.761 38.9035 134.851 38.9316 134.956 38.9316C135.062 38.9316 135.148 38.9044 135.225 38.8508C135.302 38.7973 135.356 38.7242 135.385 38.6332L135.391 38.6086C135.394 38.5958 135.405 38.5797 135.425 38.5618C135.445 38.544 135.466 38.5363 135.489 38.5397L136.007 38.6179C136.034 38.6247 136.053 38.6358 136.064 38.6519C136.075 38.6681 136.079 38.6876 136.076 38.7106C136.069 38.7624 136.061 38.8007 136.051 38.8228C135.982 39.0412 135.848 39.2129 135.649 39.337C135.451 39.4611 135.221 39.5232 134.961 39.5232C134.7 39.5232 134.47 39.4577 134.277 39.3277L134.278 39.3294Z" fill="white"/>
<path d="M137.867 37.5232H137.423C137.404 37.5232 137.393 37.5334 137.393 37.5529V38.5661C137.393 38.6741 137.416 38.7531 137.46 38.8033C137.505 38.8543 137.576 38.8789 137.674 38.8789H137.812C137.868 38.8789 137.896 38.907 137.896 38.9622V39.383C137.896 39.4348 137.868 39.4646 137.812 39.4714C137.687 39.4782 137.596 39.4816 137.541 39.4816C137.267 39.4816 137.064 39.4357 136.929 39.3447C136.794 39.2538 136.725 39.0838 136.722 38.8356V37.5529C136.722 37.5334 136.712 37.5232 136.693 37.5232H136.441C136.385 37.5232 136.357 37.4951 136.357 37.4399V37.0531C136.357 36.9979 136.385 36.9698 136.441 36.9698H136.693C136.712 36.9698 136.722 36.9596 136.722 36.9401V36.3867C136.722 36.3315 136.75 36.3034 136.806 36.3034H137.309C137.365 36.3034 137.393 36.3315 137.393 36.3867V36.9401C137.393 36.9596 137.404 36.9698 137.423 36.9698H137.867C137.923 36.9698 137.951 36.9979 137.951 37.0531V37.4399C137.951 37.4951 137.923 37.5232 137.867 37.5232Z" fill="white"/>
<path d="M138.803 39.4272C138.639 39.3652 138.512 39.2785 138.423 39.168C138.334 39.0566 138.29 38.9317 138.29 38.7906V38.7659C138.29 38.7107 138.318 38.6826 138.374 38.6826H138.872C138.928 38.6826 138.956 38.6928 138.956 38.7124V38.7464C138.956 38.8186 138.995 38.8798 139.074 38.93C139.153 38.981 139.253 39.0056 139.375 39.0056C139.486 39.0056 139.577 38.9844 139.646 38.9419C139.716 38.8994 139.75 38.8441 139.75 38.7753C139.75 38.7166 139.72 38.6724 139.661 38.6427C139.602 38.6129 139.505 38.5823 139.37 38.55C139.209 38.5075 139.089 38.4701 139.009 38.4378C138.795 38.3664 138.626 38.278 138.501 38.1735C138.376 38.0689 138.314 37.9185 138.314 37.723C138.314 37.4816 138.409 37.2895 138.6 37.1475C138.791 37.0056 139.041 36.9342 139.35 36.9342C139.561 36.9342 139.746 36.9673 139.905 37.0345C140.064 37.1016 140.187 37.1951 140.275 37.3158C140.362 37.4365 140.406 37.5734 140.406 37.7272C140.406 37.7434 140.398 37.7578 140.384 37.7689C140.369 37.7808 140.348 37.7859 140.322 37.7859H139.839C139.783 37.7859 139.755 37.7757 139.755 37.7561V37.7264C139.755 37.655 139.719 37.5938 139.646 37.5453C139.574 37.496 139.477 37.4722 139.355 37.4722C139.246 37.4722 139.157 37.4918 139.086 37.5309C139.015 37.57 138.98 37.6235 138.98 37.6924C138.98 37.7612 139.013 37.8063 139.081 37.8394C139.149 37.8717 139.259 37.9066 139.414 37.9423C139.509 37.9618 139.602 37.9865 139.691 38.0154C139.927 38.0842 140.113 38.1718 140.248 38.2797C140.383 38.3877 140.45 38.5441 140.45 38.7498C140.45 38.9912 140.354 39.1799 140.159 39.315C139.965 39.4502 139.705 39.5182 139.38 39.5182C139.16 39.5182 138.967 39.4867 138.803 39.4255L138.803 39.4272Z" fill="white"/>
</g>
</svg>
