<svg width="18" height="18" viewBox="0 0 18 18" fill="none" xmlns="http://www.w3.org/2000/svg">
<path fill-rule="evenodd" clip-rule="evenodd" d="M16.2168 3.83166C16.4955 4.67063 16.4636 5.58092 16.1269 6.39861C15.7901 7.2163 15.1707 7.88767 14.3801 8.29183C13.5895 8.696 12.6796 8.80641 11.8144 8.60317C10.9491 8.39994 10.1853 7.89642 9.66049 7.18327C9.13565 6.47013 8.88427 5.59422 8.95161 4.71326C9.01895 3.83229 9.40059 3.00416 10.0278 2.37798C10.655 1.75179 11.4866 1.36869 12.3728 1.29766C13.259 1.22662 14.1417 1.47232 14.8618 1.99052L16.7027 1.65964C16.7434 1.64661 16.7873 1.64661 16.828 1.65964C16.8735 1.67566 16.912 1.70694 16.9368 1.74809C16.9652 1.78083 16.9845 1.82035 16.9928 1.86275C17.0027 1.90478 17.0027 1.94849 16.9928 1.99052L16.2168 3.83166Z" fill="#4CFECB"/>
<path d="M11.2735 4.26392L10.7974 4.74005C10.7658 4.77162 10.7481 4.81444 10.7481 4.85908C10.7481 4.90373 10.7658 4.94655 10.7974 4.97812L12.2988 6.4796C12.3304 6.51117 12.3732 6.5289 12.4179 6.5289C12.4625 6.5289 12.5053 6.51117 12.5369 6.4796L14.8122 4.20407C14.8437 4.17251 14.8615 4.12969 14.8615 4.08504C14.8615 4.0404 14.8437 3.99758 14.8122 3.96601L14.336 3.48988C14.3045 3.45831 14.2616 3.44057 14.217 3.44057C14.1724 3.44057 14.1295 3.45831 14.098 3.48988L12.4179 5.17023L11.5116 4.26392C11.48 4.23235 11.4372 4.21461 11.3925 4.21461C11.3479 4.21461 11.3051 4.23235 11.2735 4.26392Z" fill="#3E0075"/>
<circle cx="4.5" cy="13.5" r="3.5" fill="#3E0075"/>
<circle cx="4.5" cy="5.5" r="3.5" fill="#3E0075"/>
<circle cx="12.5" cy="13.5" r="3.5" fill="#3E0075"/>
</svg>
