<svg width="18" height="18" viewBox="0 0 18 18" fill="none" xmlns="http://www.w3.org/2000/svg">
<path d="M8.60462 15.8786C8.63727 16.1715 8.41978 16.412 8.15536 16.412H1.45252C1.1881 16.412 0.970603 16.1715 1.00326 15.8786C1.23844 13.769 2.85039 12.1365 4.80394 12.1365C6.75748 12.1365 8.36943 13.769 8.60462 15.8786Z" fill="#4CFEC8"/>
<path d="M9.49604 1.26165C9.07741 1.07887 8.60876 1.38561 8.60876 1.84241V12.7098C9.30349 13.4993 9.73674 14.5737 9.87117 15.7796C9.87117 16.0259 9.87117 16.412 9.87117 16.412H15.576C15.926 16.412 16.2097 16.1283 16.2097 15.7783V4.60776C16.2097 4.35583 16.0604 4.12782 15.8295 4.02701L9.49604 1.26165Z" fill="#4CFEC8"/>
<path fill-rule="evenodd" clip-rule="evenodd" d="M6.25948 8.8455C6.40094 9.09025 6.48189 9.37436 6.48189 9.67737C6.48189 10.5968 5.73653 11.3422 4.81709 11.3422C3.89764 11.3422 3.15228 10.5968 3.15228 9.67737C3.15228 8.75793 3.89764 8.01257 4.81709 8.01257C4.96678 8.01257 5.11185 8.03232 5.24984 8.06937L6.41194 7.534C6.50448 7.49138 6.60469 7.57618 6.57795 7.67449L6.25948 8.8455Z" fill="#4CFEC8"/>
<rect x="10.4127" y="5.00537" width="1.45751" height="2.53481" rx="0.25" fill="#3E0075"/>
<rect x="12.9549" y="5.00537" width="1.45751" height="2.53481" rx="0.25" fill="#3E0075"/>
<rect x="10.4127" y="8.80225" width="1.45751" height="2.53481" rx="0.25" fill="#3E0075"/>
<rect x="12.9548" y="8.80225" width="1.45751" height="2.53481" rx="0.25" fill="#3E0075"/>
</svg>
