<svg width="18" height="18" viewBox="0 0 18 18" fill="none" xmlns="http://www.w3.org/2000/svg">
<path d="M9.0348 16.7141C13.2953 16.7141 16.749 13.2603 16.749 8.99988C16.749 4.73943 13.2953 1.28564 9.0348 1.28564C4.77434 1.28564 1.32056 4.73943 1.32056 8.99988C1.32056 13.2603 4.77434 16.7141 9.0348 16.7141Z" fill="#3E0075"/>
<path d="M1.24049 15.8494C0.910066 16.1595 1.12951 16.714 1.58265 16.714H8.96518L4.64659 12.6528L1.24049 15.8494Z" fill="#3E0075"/>
<path d="M8.54994 7.2083H9.5245C9.63039 7.20413 9.73784 7.2456 9.82425 7.30209C9.91067 7.35857 9.97421 7.43992 10.0048 7.53331L10.9792 11.1755C11.0016 11.2433 11.006 11.315 10.9919 11.3846C10.9778 11.4542 10.9456 11.5197 10.898 11.5753L9.40064 14.0408C9.35596 14.0929 9.29904 14.1351 9.23415 14.164C9.16926 14.193 9.09809 14.208 9.02598 14.208C8.95387 14.208 8.88269 14.193 8.8178 14.164C8.75291 14.1351 8.69599 14.0929 8.65132 14.0408L7.10411 11.5753C7.05503 11.5187 7.02194 11.4517 7.00778 11.3804C6.99362 11.3091 6.99884 11.2357 7.02298 11.1667L8.12347 7.52453C8.1533 7.43991 8.21034 7.36561 8.28705 7.31148C8.36375 7.25735 8.45342 7.21285 8.54994 7.2083Z" fill="#4CFECB"/>
<rect x="8" y="4.20801" width="2" height="2" rx="0.5" fill="#4CFECB"/>
</svg>
