<svg width="18" height="18" viewBox="0 0 18 18" fill="none" xmlns="http://www.w3.org/2000/svg">
<g clip-path="url(#clip0_313_260)">
<path d="M7.84263 1.90825C8.39827 1.09187 9.60173 1.09187 10.1574 1.90825L11.0826 3.26765C11.3645 3.6818 11.8462 3.91377 12.3457 3.87593L13.9854 3.75173C14.9701 3.67713 15.7204 4.61804 15.4286 5.56146L14.9426 7.13239C14.7946 7.61099 14.9136 8.13223 15.2546 8.49919L16.374 9.70371C17.0463 10.4271 16.7785 11.6004 15.859 11.9604L14.3278 12.5599C13.8613 12.7426 13.5279 13.1606 13.4537 13.656L13.2099 15.2822C13.0635 16.2588 11.9792 16.781 11.1244 16.2866L9.70098 15.4632C9.26732 15.2124 8.73268 15.2124 8.29902 15.4632L6.87561 16.2866C6.02079 16.781 4.9365 16.2588 4.79011 15.2822L4.54633 13.656C4.47207 13.1606 4.13873 12.7426 3.67223 12.5599L2.14104 11.9604C1.22149 11.6004 0.953694 10.4271 1.62596 9.70371L2.74539 8.49919C3.08644 8.13223 3.20541 7.61099 3.05736 7.13239L2.5714 5.56146C2.27957 4.61804 3.02992 3.67713 4.01462 3.75173L5.6543 3.87593C6.15385 3.91377 6.63554 3.6818 6.91741 3.26765L7.84263 1.90825Z" fill="#4CFEC8"/>
<path d="M11.8432 8.33696C12.0355 8.14464 12.0355 7.83282 11.8432 7.64049L11.5547 7.35201C11.3624 7.15968 11.0506 7.15968 10.8583 7.35201L8.92443 9.28574L8.1292 8.49053C7.93687 8.2982 7.62506 8.2982 7.43273 8.49053L7.14424 8.77902C6.95192 8.97134 6.95192 9.28316 7.14424 9.47549L8.57619 10.9074C8.76852 11.0997 9.08034 11.0997 9.27266 10.9074L11.8432 8.33696Z" fill="#3E0075"/>
</g>
<defs>
<clipPath id="clip0_313_260">
<rect width="18" height="18" fill="white"/>
</clipPath>
</defs>
</svg>
