<svg width="18" height="18" viewBox="0 0 18 18" fill="none" xmlns="http://www.w3.org/2000/svg">
<path d="M3 1.72359C3 1.43884 3.24624 1.20801 3.55 1.20801H5.75002V8.26649C5.75002 8.38857 5.61195 8.45952 5.51268 8.38844L3.21613 6.7439C3.07991 6.64636 3 6.49486 3 6.33418V1.72359Z" fill="#4CFEC8"/>
<path d="M6.85257 9.34609V1.20801L10.1382 1.20801V9.34609L8.66697 10.4081C8.56841 10.4787 8.43165 10.4787 8.33309 10.4081L6.85257 9.34609Z" fill="#4CFEC8"/>
<path d="M11.25 8.26649C11.25 8.38857 11.3881 8.45952 11.4874 8.38844L13.7839 6.7439C13.9201 6.64636 14.0001 6.49486 14.0001 6.33418V1.72359C14.0001 1.43884 13.7538 1.20801 13.4501 1.20801H11.25V8.26649Z" fill="#4CFEC8"/>
<circle cx="8.52518" cy="13.067" r="4.64097" fill="#4CFEC8"/>
<path d="M8.29932 10.8487C8.39011 10.6597 8.65921 10.6597 8.75001 10.8487L9.24616 11.8815C9.2826 11.9573 9.35477 12.0098 9.43818 12.021L10.5737 12.1737C10.7815 12.2017 10.8647 12.4576 10.713 12.6023L9.88409 13.3933C9.8232 13.4514 9.79564 13.5363 9.81074 13.6191L10.0164 14.7462C10.054 14.9525 9.83631 15.1107 9.65177 15.0111L8.64334 14.4672C8.56926 14.4273 8.48006 14.4273 8.40599 14.4672L7.39755 15.0111C7.21301 15.1107 6.9953 14.9525 7.03294 14.7462L7.23858 13.6191C7.25369 13.5363 7.22612 13.4514 7.16524 13.3933L6.33634 12.6023C6.18466 12.4576 6.26782 12.2017 6.47561 12.1737L7.61115 12.021C7.69456 12.0098 7.76672 11.9573 7.80317 11.8815L8.29932 10.8487Z" fill="#3E0075"/>
</svg>
