<svg width="18" height="18" viewBox="0 0 18 18" fill="none" xmlns="http://www.w3.org/2000/svg">
<path fill-rule="evenodd" clip-rule="evenodd" d="M6.2587 4.04563V3.62703C6.2587 2.9814 6.78209 2.45801 7.42772 2.45801C7.77246 2.45801 8.08236 2.60724 8.29632 2.84462C8.21248 3.09003 8.16699 3.35322 8.16699 3.62703V5.63325H7.84632C6.9695 5.63325 6.2587 4.92245 6.2587 4.04563ZM8.16699 6.88325H7.84632C7.48438 6.88325 7.13826 6.81549 6.81997 6.69195L8.08706 7.95905C8.28233 8.15431 8.28233 8.47089 8.08706 8.66615L7.61637 9.13684C7.42111 9.33211 7.10453 9.33211 6.90927 9.13684L2.88924 5.11682C2.69398 4.92156 2.69398 4.60498 2.88924 4.40971L3.35993 3.93902C3.5552 3.74376 3.87178 3.74376 4.06704 3.93902L5.2 5.07198C5.07646 4.75369 5.0087 4.40757 5.0087 4.04563V3.62703C5.0087 2.29104 6.09173 1.20801 7.42772 1.20801C8.03122 1.20801 8.58311 1.42901 9.00687 1.7945C9.43062 1.42901 9.9825 1.20801 10.586 1.20801C11.922 1.20801 13.005 2.29104 13.005 3.62703V4.04563C13.005 4.40351 12.9388 4.74592 12.8179 5.06126L13.9401 3.93902C14.1354 3.74376 14.4519 3.74376 14.6472 3.93902L15.1179 4.40971C15.3132 4.60498 15.3132 4.92156 15.1179 5.11682L11.0979 9.13684C10.9026 9.33211 10.586 9.33211 10.3908 9.13684L9.92008 8.66615C9.72482 8.47089 9.72482 8.15431 9.92008 7.95905L11.183 6.69609C10.8677 6.817 10.5253 6.88325 10.1674 6.88325H9.84674H9.41699H8.59674H8.16699ZM9.84674 5.63325H10.1674C11.0442 5.63325 11.755 4.92245 11.755 4.04563V3.62703C11.755 2.9814 11.2316 2.45801 10.586 2.45801C10.2413 2.45801 9.93137 2.60724 9.71741 2.84462C9.80125 3.09003 9.84674 3.35322 9.84674 3.62703V5.63325Z" fill="#3E0075"/>
<path d="M3.4835 6.56936C3.54731 6.54905 3.61529 6.53809 3.68583 6.53809H14.5082C14.6582 6.53809 14.7967 6.58766 14.908 6.67132C14.9347 6.69096 14.9602 6.71284 14.9843 6.73694L16.8141 8.56675C17.0743 8.82694 17.0743 9.2488 16.8141 9.50899L16.2439 10.0791C15.9837 10.3393 15.5619 10.3393 15.3017 10.0791L14.3368 9.1142V16.53C14.3368 16.898 14.0385 17.1963 13.6705 17.1963H4.34283C3.97486 17.1963 3.67657 16.898 3.67657 16.53V9.27584L2.70801 10.2444C2.44782 10.5046 2.02597 10.5046 1.76577 10.2444L1.19563 9.67425C0.93544 9.41406 0.93544 8.99221 1.19563 8.73202L3.18606 6.74159C3.27157 6.65608 3.37455 6.59867 3.4835 6.56936Z" fill="#4CFEC8"/>
<rect x="7.67108" y="9.20312" width="2.66505" height="7.99302" fill="#3E0075"/>
</svg>
