<svg width="18" height="18" viewBox="0 0 18 18" fill="none" xmlns="http://www.w3.org/2000/svg">
<path d="M8.60403 1.72157C8.80419 1.46197 9.19581 1.46197 9.39597 1.72157L10.5939 3.27528C10.7208 3.4398 10.9361 3.50875 11.135 3.44847L13.0624 2.86414C13.3819 2.76725 13.7049 3.00486 13.7074 3.33878L13.7219 5.21637C13.7235 5.43259 13.864 5.62325 14.07 5.68891L15.9394 6.28477C16.2668 6.38915 16.3938 6.78521 16.188 7.06051L15.0638 8.56445C14.9311 8.74196 14.9311 8.98565 15.0638 9.16317L16.188 10.6671C16.3938 10.9424 16.2668 11.3385 15.9394 11.4429L14.07 12.0387C13.864 12.1044 13.7235 12.295 13.7219 12.5112L13.7074 14.3888C13.7049 14.7228 13.3819 14.9604 13.0624 14.8635L11.1349 14.2791C10.9361 14.2189 10.7208 14.2878 10.5939 14.4523L9.39597 16.006C9.19581 16.2656 8.80419 16.2656 8.60403 16.006L7.40608 14.4523C7.27923 14.2878 7.06386 14.2189 6.86505 14.2791L4.93762 14.8635C4.61806 14.9604 4.29514 14.7228 4.29257 14.3888L4.27813 12.5112C4.27647 12.295 4.136 12.1044 3.92999 12.0387L2.06064 11.4429C1.73315 11.3385 1.60621 10.9424 1.81201 10.6671L2.93622 9.16317C3.06892 8.98565 3.06892 8.74196 2.93622 8.56445L1.81201 7.06051C1.60621 6.78521 1.73315 6.38915 2.06064 6.28477L3.92999 5.68891C4.136 5.62325 4.27647 5.43259 4.27813 5.21637L4.29257 3.33878C4.29514 3.00486 4.61805 2.76725 4.93762 2.86414L6.86505 3.44847C7.06386 3.50875 7.27923 3.4398 7.40608 3.27528L8.60403 1.72157Z" fill="#3CAFF2"/>
<path d="M10.1932 6.4744C10.1932 7.12998 9.66172 7.66144 9.00614 7.66144C8.35055 7.66144 7.81909 7.12998 7.81909 6.4744C7.81909 5.81881 8.35055 5.28735 9.00614 5.28735C9.66172 5.28735 10.1932 5.81881 10.1932 6.4744Z" fill="#3E0075"/>
<path d="M11.9648 10.9039C11.9903 11.0872 11.8206 11.2376 11.6144 11.2376H6.38519C6.17891 11.2376 6.00923 11.0872 6.03471 10.9039C6.21818 9.58374 7.47573 8.56213 8.99978 8.56213C10.5238 8.56213 11.7814 9.58374 11.9648 10.9039Z" fill="#3E0075"/>
</svg>
