<svg width="18" height="18" viewBox="0 0 18 18" fill="none" xmlns="http://www.w3.org/2000/svg">
<path d="M16.4449 17.4402C17.0294 17.4402 17.4573 16.911 17.3937 16.3312C17.0877 13.5404 14.975 11.3065 12.3331 11.3065C9.69122 11.3065 7.57855 13.5404 7.27256 16.3312L7.67018 16.3748L7.27256 16.3312C7.209 16.911 7.63682 17.4402 8.22136 17.4402H16.4449Z" fill="#3E0075" stroke="white" stroke-width="0.8"/>
<path d="M13.6942 9.38664C13.6942 10.3148 12.9418 11.0672 12.0136 11.0672C11.0854 11.0672 10.333 10.3148 10.333 9.38664C10.333 8.45848 11.0854 7.70605 12.0136 7.70605C12.9418 7.70605 13.6942 8.45848 13.6942 9.38664Z" fill="#3E0075"/>
<path d="M9.78165 17.4402C10.3662 17.4402 10.794 16.911 10.7305 16.3312C10.4245 13.5404 8.31179 11.3065 5.66988 11.3065C3.02797 11.3065 0.915294 13.5404 0.609307 16.3312L1.00692 16.3748L0.609307 16.3312C0.545742 16.911 0.973568 17.4402 1.55811 17.4402H9.78165Z" fill="#3E0075" stroke="white" stroke-width="0.8"/>
<path d="M7.34671 9.38664C7.34671 10.3148 6.59428 11.0672 5.66612 11.0672C4.73796 11.0672 3.98553 10.3148 3.98553 9.38664C3.98553 8.45848 4.73796 7.70605 5.66612 7.70605C6.59428 7.70605 7.34671 8.45848 7.34671 9.38664Z" fill="#3E0075"/>
<path d="M8.85184 1.18465C8.93181 1.08859 9.0793 1.08859 9.15927 1.18465L9.59959 1.71361C9.65005 1.77423 9.73143 1.79953 9.80737 1.7782L10.5176 1.57876C10.6445 1.54312 10.7706 1.63785 10.7717 1.76965L10.7767 2.37048C10.7774 2.45851 10.8356 2.53571 10.9201 2.56063L11.5729 2.75337C11.7095 2.79371 11.7614 2.95993 11.6719 3.07079L11.2977 3.53445C11.2386 3.60774 11.2386 3.71237 11.2977 3.78567L11.6719 4.24932C11.7614 4.36019 11.7095 4.52641 11.5729 4.56675L11.0174 4.73074C10.8946 4.767 10.837 4.90777 10.8993 5.01972L11.748 6.54661C11.8137 6.66483 11.6776 6.79231 11.5639 6.71905L9.83133 5.60273C9.74638 5.548 9.63395 5.56523 9.5693 5.6429L9.15927 6.13547C9.0793 6.23153 8.93181 6.23153 8.85184 6.13547L8.44156 5.6426C8.37701 5.56506 8.26482 5.54774 8.17989 5.6022L6.43822 6.719C6.32426 6.79207 6.18844 6.66404 6.25467 6.54597L7.11052 5.02011C7.17333 4.90813 7.11586 4.76681 6.99272 4.73046L6.43821 4.56675C6.30156 4.52641 6.24972 4.36019 6.3392 4.24932L6.7134 3.78567C6.77255 3.71237 6.77255 3.60774 6.7134 3.53445L6.3392 3.07079C6.24972 2.95993 6.30156 2.79371 6.43821 2.75337L7.09104 2.56063C7.17547 2.53571 7.23367 2.45851 7.2344 2.37048L7.23939 1.76965C7.24049 1.63785 7.36656 1.54312 7.49346 1.57876L8.20374 1.7782C8.27967 1.79953 8.36105 1.77423 8.41152 1.71361L8.85184 1.18465Z" fill="#3CAFF2"/>
</svg>
