<svg width="18" height="18" viewBox="0 0 18 18" fill="none" xmlns="http://www.w3.org/2000/svg">
<path d="M5 3L5 16L4 16C3.44772 16 3 15.5523 3 15L3 4C3 3.44772 3.44772 3 4 3L5 3Z" fill="#3E0075"/>
<path d="M14 3C14.5523 3 15 3.44772 15 4L15 15C15 15.5523 14.5523 16 14 16L6 16L6 3L14 3Z" fill="#3E0075"/>
<path d="M10 2.5C10 2.22386 10.2239 2 10.5 2H12.5C12.7761 2 13 2.22386 13 2.5V7.47404C13 7.65794 12.7727 7.74436 12.6505 7.60693L11.6449 6.47588C11.5652 6.3862 11.425 6.38643 11.3456 6.47638L10.3499 7.60379C10.228 7.74187 10 7.65562 10 7.4714V2.5Z" fill="#3CAFF2"/>
</svg>
