<svg width="18" height="18" viewBox="0 0 18 18" fill="none" xmlns="http://www.w3.org/2000/svg">
<circle cx="3.5" cy="3.5" r="2" fill="#3CAFF2"/>
<circle cx="2.25" cy="10.25" r="1.25" fill="#3E0075"/>
<circle cx="16" cy="9" r="1" fill="#3CAFF2"/>
<circle cx="4.75" cy="15.25" r="1.75" fill="#3CAFF2"/>
<path fill-rule="evenodd" clip-rule="evenodd" d="M14.25 5.5C15.4926 5.5 16.5 4.49264 16.5 3.25C16.5 2.00736 15.4926 1 14.25 1C13.0074 1 12 2.00736 12 3.25C12 3.68047 12.1209 4.08271 12.3306 4.42462L11.1707 5.63969C10.5455 5.23497 9.80021 5 9 5C6.79086 5 5 6.79086 5 9C5 11.2091 6.79086 13 9 13C9.66605 13 10.2941 12.8372 10.8465 12.5492L11.7577 13.7035C11.5931 14.0161 11.5 14.3722 11.5 14.75C11.5 15.9926 12.5074 17 13.75 17C14.9926 17 16 15.9926 16 14.75C16 13.5074 14.9926 12.5 13.75 12.5C13.4348 12.5 13.1347 12.5648 12.8623 12.6819L12.0233 11.6192C12.6318 10.9174 13 10.0017 13 9C13 8.13312 12.7242 7.33065 12.2557 6.67552L13.5 5.37196C13.7346 5.45488 13.987 5.5 14.25 5.5ZM10 7.5C10 8.05228 9.55229 8.5 9 8.5C8.44772 8.5 8 8.05228 8 7.5C8 6.94772 8.44772 6.5 9 6.5C9.55229 6.5 10 6.94772 10 7.5ZM10.9846 10.7505C11.0016 10.8875 10.8881 11 10.75 11H7.25C7.11193 11 6.99836 10.8875 7.01541 10.7505C7.13822 9.76368 7.97992 9 9 9C10.0201 9 10.8618 9.76368 10.9846 10.7505Z" fill="#3E0075"/>
</svg>
