<svg width="36" height="36" viewBox="0 0 36 36" fill="none" xmlns="http://www.w3.org/2000/svg">
<path d="M5 26.5H5.5V26V6C5.5 5.72386 5.72386 5.5 6 5.5H30C30.2761 5.5 30.5 5.72386 30.5 6V26V26.5H31H33C33.2761 26.5 33.5 26.7239 33.5 27V29C33.5 29.2761 33.2761 29.5 33 29.5H3C2.72386 29.5 2.5 29.2761 2.5 29V27C2.5 26.7239 2.72386 26.5 3 26.5H5Z" fill="white" stroke="white"/>
<path d="M22.5025 16.0373C23.1244 16.4296 23.1244 17.3365 22.5025 17.7288L15.5488 22.1153C14.8829 22.5353 14.0153 22.0568 14.0153 21.2695L14.0153 12.4966C14.0153 11.7093 14.8829 11.2308 15.5488 11.6508L22.5025 16.0373Z" fill="#8039DF"/>
</svg>
