<svg width="18" height="18" viewBox="0 0 18 18" fill="none" xmlns="http://www.w3.org/2000/svg">
<path fill-rule="evenodd" clip-rule="evenodd" d="M12 2.5C12 2.22386 11.7761 2 11.5 2H6.5C6.22386 2 6 2.22386 6 2.5V3.5C6 3.77614 6.22386 4 6.5 4H8V7H10V4H11.5C11.7761 4 12 3.77614 12 3.5V2.5Z" fill="#FF2370"/>
<path d="M10 6H8L2.2 13.7333C2.07018 13.9064 2 14.117 2 14.3333V15.5C2 15.7761 2.22386 16 2.5 16H15.5C15.7761 16 16 15.7761 16 15.5V14.3333C16 14.117 15.9298 13.9064 15.8 13.7333L10 6Z" fill="#FF2370"/>
<path fill-rule="evenodd" clip-rule="evenodd" d="M13.6957 10.9277L13.074 10.4358C12.4266 9.92354 11.531 9.86169 10.8194 10.28L10.0205 10.7497C9.39533 11.1172 8.62013 11.1175 7.99465 10.7504L7.18644 10.2761C6.47378 9.85785 5.57728 9.92094 4.93023 10.4349L4.29628 10.9384L2.2 13.7334C2.07018 13.9065 2 14.1171 2 14.3334V15.5001C2 15.7762 2.22386 16.0001 2.5 16.0001H15.5C15.7761 16.0001 16 15.7762 16 15.5001V14.3334C16 14.1171 15.9298 13.9065 15.8 13.7334L13.6957 10.9277Z" fill="#3E0075"/>
</svg>
