<svg width="21" height="23" viewBox="0 0 21 23" fill="none" xmlns="http://www.w3.org/2000/svg">
<path fill-rule="evenodd" clip-rule="evenodd" d="M10.8472 0.391113C11.2307 0.391113 11.5416 0.702026 11.5416 1.08556V2.47445C11.5416 2.85798 11.2307 3.16889 10.8472 3.16889H10.1528C9.76923 3.16889 9.45831 2.85798 9.45831 2.47445V1.08556C9.45831 0.702027 9.76923 0.391113 10.1528 0.391113H10.8472Z" fill="#1D0254"/>
<path fill-rule="evenodd" clip-rule="evenodd" d="M16.4946 2.04164C16.7884 2.28809 16.8267 2.72599 16.5801 3.01972L15.6871 4.08343C15.4405 4.37716 15.0023 4.41549 14.7084 4.16905L14.1764 3.72281C13.8825 3.47636 13.8442 3.03846 14.0908 2.74473L14.9838 1.68102C15.2304 1.38729 15.6686 1.34896 15.9625 1.5954L16.4946 2.04164Z" fill="#1D0254"/>
<path fill-rule="evenodd" clip-rule="evenodd" d="M5.02953 1.63829C5.3234 1.39185 5.76154 1.43018 6.00815 1.72391L6.90121 2.78762C7.14782 3.08135 7.1095 3.51926 6.81563 3.7657L6.28354 4.21194C5.98967 4.45839 5.55152 4.42005 5.30491 4.12632L4.41186 3.06261C4.16525 2.76888 4.20356 2.33098 4.49743 2.08453L5.02953 1.63829Z" fill="#1D0254"/>
<path fill-rule="evenodd" clip-rule="evenodd" d="M4.94834 6.63823H16.0595L16.0787 6.63825C18.4381 6.63825 20.3507 8.55089 20.3507 10.9103C20.3507 13.2696 18.4381 15.1822 16.0787 15.1822C15.923 15.1822 15.7693 15.1739 15.6179 15.1577C14.9024 16.8384 13.3826 18.0944 11.5418 18.4423V20.5259H15.361C15.7446 20.5259 16.0555 20.8368 16.0555 21.2204V21.9148C16.0555 22.2983 15.7446 22.6093 15.361 22.6093L5.6388 22.6093C5.25527 22.6093 4.94436 22.2983 4.94436 21.9148V21.2204C4.94436 20.8368 5.25527 20.5259 5.6388 20.5259H9.45842V18.4408C7.62024 18.0908 6.10311 16.835 5.389 15.1556C5.23134 15.1732 5.07109 15.1822 4.90872 15.1822C2.54936 15.1822 0.636719 13.2696 0.636719 10.9103C0.636719 8.55089 2.54936 6.63825 4.90872 6.63825L4.92264 6.63822C4.93121 6.63819 4.93978 6.63815 4.94834 6.63823ZM16.0595 12.9835C16.0595 13.022 16.0591 13.0605 16.0583 13.0988L16.0787 13.0989C17.2875 13.0989 18.2674 12.119 18.2674 10.9103C18.2674 9.70148 17.2875 8.72159 16.0787 8.72159L16.0595 8.72167V12.9835ZM4.94834 12.9835V8.72194C4.93516 8.7217 4.92195 8.72159 4.90872 8.72159C3.69995 8.72159 2.72005 9.70148 2.72005 10.9103C2.72005 12.119 3.69995 13.0989 4.90872 13.0989C4.92235 13.0989 4.93594 13.0988 4.94951 13.0985C4.94873 13.0603 4.94834 13.0219 4.94834 12.9835ZM10.7783 10.1103H10.2123C10.1344 10.1141 10.0596 10.1403 9.99768 10.1854C9.9358 10.2305 9.88978 10.2924 9.8657 10.3629L8.86067 13.898C8.8412 13.9555 8.83699 14.0166 8.84841 14.0761C8.85983 14.1355 8.88653 14.1913 8.92614 14.2385L10.2123 16.2068C10.2484 16.2502 10.2943 16.2853 10.3466 16.3095C10.399 16.3336 10.4564 16.3461 10.5146 16.3461C10.5728 16.3461 10.6302 16.3336 10.6826 16.3095C10.7349 16.2853 10.7808 16.2502 10.8169 16.2068L12.0761 14.2385C12.1144 14.1921 12.1404 14.1376 12.1518 14.0795C12.1632 14.0215 12.1597 13.9618 12.1416 13.9053L11.1634 10.3702C11.1387 10.2924 11.0874 10.2246 11.0177 10.1776C10.948 10.1305 10.8638 10.1068 10.7783 10.1103ZM10.9007 8.03445H10.0991C9.80391 8.03445 9.56464 8.26028 9.56464 8.53885V8.93228C9.56464 9.21085 9.80391 9.43668 10.0991 9.43668H10.9007C11.1959 9.43668 11.4352 9.21085 11.4352 8.93228V8.53885C11.4352 8.26028 11.1959 8.03445 10.9007 8.03445Z" fill="#3CAFF2"/>
</svg>
