<svg width="27" height="24" viewBox="0 0 27 24" fill="none" xmlns="http://www.w3.org/2000/svg">
<path fill-rule="evenodd" clip-rule="evenodd" d="M12.8472 1.39111C13.2307 1.39111 13.5417 1.70203 13.5417 2.08556V3.47445C13.5417 3.85798 13.2307 4.16889 12.8472 4.16889H12.1528C11.7692 4.16889 11.4583 3.85798 11.4583 3.47445V2.08556C11.4583 1.70203 11.7692 1.39111 12.1528 1.39111H12.8472Z" fill="#1D0254"/>
<path fill-rule="evenodd" clip-rule="evenodd" d="M18.4946 3.04164C18.7884 3.28809 18.8268 3.72599 18.5801 4.01972L17.6871 5.08343C17.4405 5.37716 17.0023 5.41549 16.7085 5.16905L16.1764 4.72281C15.8825 4.47636 15.8442 4.03846 16.0908 3.74473L16.9838 2.68102C17.2305 2.38729 17.6686 2.34896 17.9625 2.5954L18.4946 3.04164Z" fill="#1D0254"/>
<path fill-rule="evenodd" clip-rule="evenodd" d="M7.02951 2.63829C7.32338 2.39185 7.76153 2.43018 8.00814 2.72391L8.90119 3.78762C9.1478 4.08135 9.10949 4.51926 8.81562 4.7657L8.28352 5.21194C7.98965 5.45839 7.55151 5.42005 7.3049 5.12632L6.41184 4.06261C6.16523 3.76888 6.20355 3.33098 6.49742 3.08453L7.02951 2.63829Z" fill="#1D0254"/>
<path fill-rule="evenodd" clip-rule="evenodd" d="M6.94834 7.63823H18.0595L18.0787 7.63825C20.4381 7.63825 22.3507 9.55089 22.3507 11.9103C22.3507 14.2696 20.4381 16.1822 18.0787 16.1822C17.923 16.1822 17.7693 16.1739 17.6179 16.1577C16.9024 17.8384 15.3826 19.0944 13.5418 19.4423V21.5259H17.361C17.7446 21.5259 18.0555 21.8368 18.0555 22.2204V22.9148C18.0555 23.2983 17.7446 23.6093 17.361 23.6093L7.6388 23.6093C7.25527 23.6093 6.94436 23.2983 6.94436 22.9148V22.2204C6.94436 21.8368 7.25527 21.5259 7.6388 21.5259H11.4584V19.4408C9.62024 19.0908 8.10311 17.835 7.389 16.1556C7.23134 16.1732 7.07109 16.1822 6.90872 16.1822C4.54936 16.1822 2.63672 14.2696 2.63672 11.9103C2.63672 9.55089 4.54936 7.63825 6.90872 7.63825L6.92264 7.63822C6.93121 7.63819 6.93978 7.63815 6.94834 7.63823ZM18.0595 13.9835C18.0595 14.022 18.0591 14.0605 18.0583 14.0988L18.0787 14.0989C19.2875 14.0989 20.2674 13.119 20.2674 11.9103C20.2674 10.7015 19.2875 9.72159 18.0787 9.72159L18.0595 9.72167V13.9835ZM6.94834 13.9835V9.72194C6.93516 9.7217 6.92195 9.72159 6.90872 9.72159C5.69995 9.72159 4.72005 10.7015 4.72005 11.9103C4.72005 13.119 5.69995 14.0989 6.90872 14.0989C6.92235 14.0989 6.93594 14.0988 6.94951 14.0985C6.94873 14.0603 6.94834 14.0219 6.94834 13.9835ZM12.7783 11.1103H12.2123C12.1344 11.1141 12.0596 11.1403 11.9977 11.1854C11.9358 11.2305 11.8898 11.2924 11.8657 11.3629L10.8607 14.898C10.8412 14.9555 10.837 15.0166 10.8484 15.0761C10.8598 15.1355 10.8865 15.1913 10.9261 15.2385L12.2123 17.2068C12.2484 17.2502 12.2943 17.2853 12.3466 17.3095C12.399 17.3336 12.4564 17.3461 12.5146 17.3461C12.5728 17.3461 12.6302 17.3336 12.6826 17.3095C12.7349 17.2853 12.7808 17.2502 12.8169 17.2068L14.0761 15.2385C14.1144 15.1921 14.1404 15.1376 14.1518 15.0795C14.1632 15.0215 14.1597 14.9618 14.1416 14.9053L13.1634 11.3702C13.1387 11.2924 13.0874 11.2246 13.0177 11.1776C12.948 11.1305 12.8638 11.1068 12.7783 11.1103ZM12.9007 9.03445H12.0991C11.8039 9.03445 11.5646 9.26028 11.5646 9.53885V9.93228C11.5646 10.2109 11.8039 10.4367 12.0991 10.4367H12.9007C13.1959 10.4367 13.4352 10.2109 13.4352 9.93228V9.53885C13.4352 9.26028 13.1959 9.03445 12.9007 9.03445Z" fill="#8039DF"/>
</svg>
